M48
; DRILL file {KiCad 9.0.7} date 2026-05-06T18:49:15+0800
; FORMAT={-:-/ absolute / metric / decimal}
; #@! TF.CreationDate,2026-05-06T18:49:15+08:00
; #@! TF.GenerationSoftware,Kicad,Pcbnew,9.0.7
; #@! TF.FileFunction,Plated,1,2,PTH
FMAT,2
METRIC
; #@! TA.AperFunction,Plated,PTH,ViaDrill
T1C0.400
; #@! TA.AperFunction,Plated,PTH,ComponentDrill
T2C0.800
; #@! TA.AperFunction,Plated,PTH,ComponentDrill
T3C0.900
; #@! TA.AperFunction,Plated,PTH,ComponentDrill
T4C1.000
; #@! TA.AperFunction,Plated,PTH,ComponentDrill
T5C1.100
; #@! TA.AperFunction,Plated,PTH,ComponentDrill
T6C1.200
%
G90
G05
T1
X126.61Y-99.17
X130.43Y-111.23
X136.98Y-122.9
X137.0Y-116.44
X141.94Y-122.87
X146.1Y-102.51
X146.2Y-107.36
X152.61Y-99.84
X154.72Y-92.83
X155.54Y-86.06
X157.43Y-99.64
X163.2Y-99.64
X166.08Y-96.5
T2
X119.03Y-109.87
X119.03Y-117.49
X123.03Y-109.8
X123.03Y-117.42
X124.54Y-97.58
X124.54Y-105.2
X127.16Y-109.76
X127.16Y-117.38
X128.78Y-97.56
X128.78Y-105.18
X129.5Y-86.84
X129.5Y-94.46
X131.71Y-80.29
X134.25Y-80.29
X136.79Y-80.29
X139.33Y-80.29
X141.87Y-80.29
X144.41Y-80.29
X146.95Y-80.29
X149.49Y-80.29
T3
X111.86Y-124.49
X114.4Y-124.49
X118.76Y-124.42
X121.3Y-124.42
X125.48Y-124.36
X128.02Y-124.36
T4
X126.66Y-95.63
X130.4Y-113.37
X133.52Y-88.5
X133.52Y-91.04
X133.52Y-93.58
X133.52Y-96.12
X133.52Y-98.66
X133.52Y-101.2
X133.52Y-103.74
X133.52Y-106.28
X133.52Y-108.82
X133.52Y-111.36
X133.52Y-113.9
X133.52Y-116.44
X133.52Y-118.98
X133.52Y-121.52
X133.52Y-124.06
X136.9Y-120.82
X137.08Y-114.0
X141.86Y-120.98
X144.01Y-109.03
X145.06Y-99.07
X148.76Y-88.5
X148.76Y-91.04
X148.76Y-93.58
X148.76Y-96.12
X148.76Y-98.66
X148.76Y-101.2
X148.76Y-103.74
X148.76Y-106.28
X148.76Y-108.82
X148.76Y-111.36
X148.76Y-113.9
X148.76Y-116.44
X148.76Y-118.98
X148.76Y-121.52
X148.76Y-124.06
X152.74Y-92.88
X153.45Y-86.09
X154.07Y-99.79
X163.74Y-115.6
X164.28Y-94.64
X166.08Y-98.81
X166.08Y-101.35
X166.28Y-115.6
X168.82Y-115.6
X171.36Y-115.6
X173.9Y-115.6
T5
X107.47Y-108.32
X107.47Y-112.82
X113.62Y-98.32
X113.62Y-102.82
X113.97Y-108.32
X113.97Y-112.82
X119.2Y-88.24
X119.2Y-92.74
X120.12Y-98.32
X120.12Y-102.82
X125.7Y-88.24
X125.7Y-92.74
T6
X154.7Y-124.1
X157.64Y-102.41
X157.64Y-107.41
X157.64Y-112.41
X157.72Y-83.24
X157.72Y-88.24
X157.72Y-93.24
X159.7Y-124.1
X164.7Y-124.1
M30
