%TF.GenerationSoftware,KiCad,Pcbnew,9.0.7*%
%TF.CreationDate,2026-05-06T18:49:10+08:00*%
%TF.ProjectId,PCB_new,5043425f-6e65-4772-9e6b-696361645f70,rev?*%
%TF.SameCoordinates,Original*%
%TF.FileFunction,Legend,Bot*%
%TF.FilePolarity,Positive*%
%FSLAX46Y46*%
G04 Gerber Fmt 4.6, Leading zero omitted, Abs format (unit mm)*
G04 Created by KiCad (PCBNEW 9.0.7) date 2026-05-06 18:49:10*
%MOMM*%
%LPD*%
G01*
G04 APERTURE LIST*
%ADD10C,0.045203*%
%ADD11C,0.150000*%
G04 APERTURE END LIST*
D10*
X155843289Y-96540324D02*
X156059812Y-96453715D01*
X128183896Y-93953257D02*
X128183896Y-93379466D01*
X140049741Y-92732737D02*
X140049741Y-91454570D01*
X127907987Y-98839427D02*
X127907987Y-98839427D01*
X136320493Y-89506724D02*
X136320493Y-88425029D01*
X132252194Y-90615947D02*
X132252194Y-89900859D01*
X130364530Y-88635295D02*
X130148007Y-88588054D01*
X140727811Y-92584880D02*
X140727811Y-91401866D01*
X143100980Y-93110606D02*
X143100980Y-91600139D01*
X137556607Y-96971446D02*
X137556607Y-96971446D01*
X154937833Y-102130534D02*
X154937833Y-102130534D01*
X141405850Y-104250956D02*
X141405850Y-103154094D01*
X144851865Y-96225383D02*
X144777494Y-96962413D01*
X143440000Y-86246226D02*
X143440000Y-83909495D01*
X153949765Y-99071971D02*
X153949765Y-98447795D01*
X127337155Y-101717173D02*
X127341123Y-101957316D01*
X137356229Y-92194163D02*
X141167020Y-85895305D01*
X143218686Y-93174998D02*
X143218686Y-93174998D01*
X135907498Y-92351603D02*
X135907498Y-92351603D01*
X129384275Y-104264323D02*
X129384275Y-104264323D01*
X152932675Y-94172984D02*
X152932675Y-93555980D01*
X150898557Y-104382426D02*
X150898557Y-104250956D01*
X145135129Y-87440043D02*
X145135129Y-85779490D01*
X131574124Y-92591838D02*
X131574124Y-91920970D01*
X132252194Y-100611857D02*
X132252194Y-98307383D01*
X133513944Y-104350932D02*
X135403592Y-104350932D01*
X136659513Y-99966441D02*
X136659513Y-98589976D01*
X127963101Y-98618937D02*
X127907987Y-98839427D01*
X152932675Y-104322429D02*
X152932675Y-104250956D01*
X148536649Y-107531840D02*
X148694150Y-107468852D01*
X154966825Y-90766642D02*
X154966825Y-90689982D01*
X146835996Y-110114329D02*
X146961972Y-110082896D01*
X132159696Y-95847453D02*
X132065213Y-95910441D01*
X142804715Y-86304728D02*
X142804715Y-86304728D01*
X152315946Y-89139201D02*
X152445859Y-88946299D01*
X150898557Y-96540324D02*
X150898557Y-95910441D01*
X143151181Y-104382365D02*
X144253476Y-104382365D01*
X154174100Y-98492991D02*
X149638944Y-97579631D01*
X126305722Y-95997050D02*
X126207303Y-96225383D01*
X130710965Y-103154094D02*
X133765897Y-98115031D01*
X127337155Y-101717173D02*
X127341123Y-101957316D01*
X137104306Y-98839427D02*
X135886350Y-98156382D01*
X144217404Y-94173716D02*
X144217404Y-94173716D01*
X141167020Y-85895305D02*
X144977811Y-92194163D01*
X148864377Y-96208049D02*
X148864377Y-94364879D01*
X151875028Y-85832316D02*
X151875028Y-85832316D01*
X145229764Y-93611369D02*
X146433927Y-94294413D01*
X130585019Y-85643351D02*
X130490506Y-85863810D01*
X149542447Y-90689982D02*
X149542447Y-90269664D01*
X146447202Y-98156382D02*
X146447202Y-98156382D01*
X153300138Y-103768290D02*
X153300138Y-103768290D01*
X127844876Y-96540324D02*
X127844876Y-95910441D01*
X144796109Y-105690623D02*
X144796109Y-104250956D01*
X148788602Y-107059428D02*
X146993466Y-104382426D01*
X147169278Y-87773143D02*
X147169278Y-86697062D01*
X134080838Y-85076457D02*
X133887937Y-84946544D01*
X135303403Y-92661631D02*
X135303403Y-91946574D01*
X133576932Y-85391398D02*
X136978299Y-90493449D01*
X143779019Y-109483744D02*
X143779019Y-107542521D01*
X151237577Y-106736888D02*
X151237577Y-105855052D01*
X154426053Y-98839427D02*
X154382718Y-98618937D01*
X154627805Y-102138591D02*
X154627805Y-101467540D01*
X129879025Y-104350932D02*
X129879025Y-104250956D01*
X132065213Y-96540324D02*
X132065213Y-96540324D01*
X134286344Y-93715831D02*
X134286344Y-93045268D01*
X149764920Y-104382426D02*
X149764920Y-104382426D01*
X133104520Y-94934123D02*
X132159696Y-95847453D01*
X132591214Y-105273661D02*
X132591214Y-104391856D01*
X141135526Y-81265666D02*
X141135526Y-81265666D01*
X131057401Y-106807475D02*
X133513944Y-104350932D01*
X143781034Y-82934855D02*
X143560575Y-82978190D01*
X136998532Y-107111552D02*
X136998532Y-105511760D01*
X132252194Y-105612681D02*
X132252194Y-104730876D01*
X151780576Y-106838969D02*
X151780576Y-106838969D01*
X141450467Y-81580607D02*
X141450467Y-81580607D01*
X136320493Y-104350932D02*
X136320493Y-104250956D01*
X135165921Y-99127269D02*
X135999723Y-99629130D01*
X133608457Y-107027934D02*
X133608457Y-107027934D01*
X141744870Y-86850444D02*
X141744870Y-84586039D01*
X135303403Y-109913310D02*
X135303403Y-109579997D01*
X155811795Y-95910441D02*
X155811795Y-95910441D01*
X152932675Y-104250956D02*
X152932675Y-102978801D01*
X154866941Y-90871379D02*
X155028379Y-90702098D01*
X135403592Y-104350932D02*
X133608457Y-107027934D01*
X139025418Y-87092082D02*
X139025418Y-87092082D01*
X141066831Y-101100322D02*
X141066831Y-99900218D01*
X144777494Y-96962413D02*
X144777494Y-96962413D01*
X132252194Y-98304393D02*
X132252194Y-97674540D01*
X149260983Y-94902629D02*
X149260983Y-94902629D01*
X135592557Y-92855510D02*
X135372129Y-93233439D01*
X137676572Y-97470469D02*
X137676572Y-97361094D01*
X142305295Y-101032664D02*
X142305295Y-101032664D01*
X128861936Y-94091044D02*
X128861936Y-93473948D01*
X152445859Y-88946299D02*
X152410398Y-88729777D01*
X144081204Y-91866893D02*
X143143277Y-91607554D01*
X138324674Y-83092296D02*
X138269559Y-83312785D01*
X138015592Y-90689982D02*
X138015592Y-87841807D01*
X135981442Y-84517009D02*
X135981442Y-83909495D01*
X140727811Y-101077800D02*
X140727811Y-99866435D01*
X126522244Y-96540324D02*
X132065213Y-96540324D01*
X144473905Y-89044719D02*
X144473905Y-89044719D01*
X139101499Y-99284068D02*
X138556943Y-98835460D01*
X148804349Y-85174876D02*
X148662625Y-84981974D01*
X128285916Y-99091349D02*
X132254209Y-98303996D01*
X151560086Y-85517375D02*
X151339597Y-85611857D01*
X137324735Y-89926555D02*
X134080838Y-85076457D01*
X153949765Y-93970866D02*
X153949765Y-93353740D01*
X144563962Y-97651469D02*
X144225705Y-98277049D01*
X130805448Y-85548869D02*
X130585019Y-85643351D01*
X127341123Y-101957316D02*
X127459195Y-102099040D01*
X141066831Y-104250956D02*
X141066831Y-103154094D01*
X132252194Y-104250956D02*
X132252194Y-103154094D01*
X145813169Y-97599833D02*
X145813169Y-97470469D01*
X145474149Y-98406535D02*
X145474149Y-97470469D01*
X154382718Y-98618937D02*
X154174100Y-98492961D01*
X152593656Y-101294627D02*
X152593656Y-100626994D01*
X145812406Y-94835704D02*
X145565366Y-94201396D01*
X141744870Y-92599864D02*
X141744870Y-91410716D01*
X129200955Y-98909800D02*
X129200955Y-98284770D01*
X127337155Y-90733592D02*
X127498563Y-90902873D01*
X135999723Y-99629130D02*
X136911374Y-100095225D01*
X129167752Y-103437632D02*
X129085111Y-103736827D01*
X146491208Y-94334147D02*
X146491208Y-92298045D01*
X145422666Y-100107035D02*
X146334348Y-99642985D01*
X152593656Y-98805034D02*
X152593656Y-98174693D01*
X152254636Y-96540324D02*
X152254636Y-95910441D01*
X146993436Y-93233439D02*
X146993436Y-93233439D01*
X151915616Y-94375102D02*
X151915616Y-93758189D01*
X132252194Y-92872844D02*
X132252194Y-92202037D01*
X131235105Y-86734385D02*
X131235105Y-85852549D01*
X138324674Y-83092296D02*
X138324674Y-83092296D01*
X153271726Y-98938487D02*
X153271726Y-98311259D01*
X135120145Y-93390910D02*
X127750546Y-90335978D01*
X149542447Y-104250956D02*
X149542447Y-103154094D01*
X147123380Y-109913615D02*
X147123380Y-109913615D01*
X144225705Y-98277049D02*
X143777097Y-98823649D01*
X148303403Y-96766703D02*
X147481595Y-97437907D01*
X144081204Y-91866893D02*
X143143277Y-91607554D01*
X140420926Y-99835856D02*
X140420926Y-99835856D01*
X149542447Y-97470469D02*
X149542447Y-97425212D01*
X147056424Y-82777415D02*
X147056424Y-82777415D01*
X138354642Y-83738108D02*
X138354642Y-83073161D01*
X128522916Y-90689982D02*
X128522916Y-90656138D01*
X146334348Y-99642985D02*
X147168119Y-99140544D01*
X133702909Y-107437358D02*
X133702909Y-107437358D01*
X128183896Y-96540324D02*
X128183896Y-95910441D01*
X142804715Y-86304728D02*
X141639463Y-84415080D01*
X154300077Y-93383036D02*
X154079618Y-93327922D01*
X151780576Y-106398051D02*
X149764920Y-104382426D01*
X135561063Y-110082835D02*
X135561063Y-110082835D01*
X135277616Y-82808909D02*
X137860135Y-89076243D01*
X136320493Y-94050944D02*
X136320493Y-90937938D01*
X134964383Y-106096324D02*
X134964383Y-105005900D01*
X141167020Y-85895305D02*
X144977811Y-92194163D01*
X130522031Y-106587016D02*
X130616483Y-106807475D01*
X151576596Y-94442485D02*
X151576596Y-93825602D01*
X129955106Y-88729777D02*
X129955106Y-88729777D01*
X135981442Y-99618144D02*
X135981442Y-98209697D01*
X147847318Y-92135203D02*
X147847318Y-91396556D01*
X136568875Y-91186351D02*
X131025907Y-85643351D01*
X147508298Y-92362498D02*
X147508298Y-91621928D01*
X131246366Y-100004680D02*
X127498563Y-101547892D01*
X135165921Y-99127269D02*
X135165921Y-99127269D01*
X154866941Y-90871379D02*
X154866941Y-90871379D01*
X127505826Y-102112376D02*
X127505826Y-101544902D01*
X146552548Y-109925334D02*
X146670651Y-110067057D01*
X155028379Y-90702098D02*
X155028379Y-90702098D01*
X144457059Y-90689982D02*
X144457059Y-87408549D01*
X139907285Y-104319377D02*
X140852078Y-104319377D01*
X151686063Y-100918071D02*
X151686063Y-100918071D01*
X135844510Y-82556926D02*
X135675229Y-82395518D01*
X141167020Y-91375285D02*
X141167020Y-91375285D01*
X150048398Y-98303996D02*
X154048123Y-99091319D01*
X149881467Y-90771403D02*
X149881467Y-90689982D01*
X134625363Y-97470469D02*
X134625363Y-97248546D01*
X133419461Y-96225383D02*
X133419461Y-96225383D01*
X145813169Y-108142741D02*
X145813169Y-106538462D01*
X141405850Y-92565074D02*
X141405850Y-91389933D01*
X134848538Y-97437907D02*
X133419461Y-96225383D01*
X132591214Y-93013347D02*
X132591214Y-92342601D01*
X129167752Y-103437632D02*
X129167752Y-103437632D01*
X141066831Y-83909495D02*
X141066831Y-81291728D01*
X141639463Y-84415080D02*
X141639463Y-84415080D01*
X137557889Y-95479289D02*
X137774533Y-94785991D01*
X153610745Y-96540324D02*
X153610745Y-95910441D01*
X151875028Y-106618510D02*
X151780576Y-106398051D01*
X136521634Y-97615062D02*
X136768674Y-98249369D01*
X135435117Y-82399455D02*
X135435117Y-82399455D01*
X146458005Y-92320109D02*
X146111569Y-91721721D01*
X127750546Y-90335978D02*
X127750546Y-90335978D01*
X142083890Y-87410807D02*
X142083890Y-85135814D01*
X149881467Y-96945079D02*
X149881467Y-95502421D01*
X132930234Y-104250956D02*
X132930234Y-103154094D01*
X131574124Y-106290751D02*
X131574124Y-105408915D01*
X142422910Y-104350871D02*
X142422910Y-104250956D01*
X146017118Y-96225383D02*
X145964963Y-95511363D01*
X137676572Y-88630748D02*
X137676572Y-87016551D01*
X134625363Y-92207042D02*
X134625363Y-91491984D01*
X130557065Y-106668803D02*
X130557065Y-106505259D01*
X148864377Y-104382426D02*
X148864377Y-104250956D01*
X139032681Y-93234538D02*
X139032681Y-91648326D01*
X144032987Y-83281291D02*
X143989652Y-83060832D01*
X148804349Y-85174876D02*
X148804349Y-85174876D01*
X129879025Y-91889354D02*
X129879025Y-91218303D01*
X151237577Y-89862193D02*
X151237577Y-89142802D01*
X149764920Y-104382426D02*
X152725369Y-104382426D01*
X146152188Y-104250956D02*
X146152188Y-103154094D01*
X151576596Y-89634898D02*
X151576596Y-88917430D01*
X144473905Y-89044719D02*
X147056424Y-82777415D01*
X128285916Y-93359416D02*
X128285916Y-93359416D01*
X133765897Y-98115031D02*
X135165921Y-99127269D01*
X127510373Y-90332042D02*
X127341123Y-90493449D01*
X128861936Y-101653758D02*
X128861936Y-100986522D01*
X147056424Y-82777415D02*
X147060361Y-82537242D01*
X145964963Y-96926127D02*
X145964963Y-96926127D01*
X138693662Y-104250956D02*
X138693662Y-103154094D01*
X127750546Y-90335978D02*
X127510373Y-90332042D01*
X134625363Y-90124644D02*
X134625363Y-89242808D01*
X132591214Y-94832103D02*
X132591214Y-94215434D01*
X143440000Y-109101970D02*
X143440000Y-105836100D01*
X148525357Y-104382426D02*
X148525357Y-104250956D01*
X134964383Y-98981547D02*
X134964383Y-97518107D01*
X148757108Y-85391398D02*
X148757108Y-85391398D01*
X141904050Y-92616221D02*
X142593106Y-92832866D01*
X136911374Y-100095225D02*
X137892423Y-100500773D01*
X143143277Y-91607554D02*
X143143277Y-91607554D01*
X134625363Y-104250956D02*
X134625363Y-103154094D01*
X130218045Y-98707988D02*
X130218045Y-98081370D01*
X150205808Y-95815959D02*
X150205808Y-95815959D01*
X145229764Y-98839427D02*
X145565366Y-98244944D01*
X140938687Y-111086680D02*
X141167020Y-111185099D01*
X140852078Y-104319377D02*
X140852078Y-110870158D01*
X138568753Y-93615306D02*
X139115354Y-93166697D01*
X136659513Y-97470469D02*
X136659513Y-94489390D01*
X129085111Y-103736827D02*
X129167752Y-104035991D01*
X128285916Y-93359416D02*
X128065457Y-93402751D01*
X141405850Y-101091380D02*
X141405850Y-99885997D01*
X129200955Y-96540324D02*
X129200955Y-95910441D01*
X130836972Y-106901988D02*
X131057401Y-106807475D01*
X127624539Y-102146281D02*
X127750516Y-102114879D01*
X144441617Y-100509074D02*
X145422666Y-100107035D01*
X136659513Y-104250956D02*
X136659513Y-103154094D01*
X138116666Y-94159861D02*
X138568753Y-93615306D01*
X149542447Y-93077922D02*
X149542447Y-92428904D01*
X155024442Y-90461955D02*
X155024442Y-90461955D01*
X148694119Y-94398723D02*
X148694119Y-94398723D01*
X150300321Y-96540324D02*
X150300321Y-96540324D01*
X136369077Y-96939402D02*
X136369077Y-96939402D01*
X136320493Y-99793132D02*
X136320493Y-98399852D01*
X130490506Y-85863810D02*
X130585019Y-86084269D01*
X155811765Y-95910441D02*
X150268827Y-95910441D01*
X136978299Y-90493449D02*
X136568875Y-91186351D01*
X134625363Y-104350932D02*
X134625363Y-104250956D01*
X128522916Y-96540324D02*
X128522916Y-95910441D01*
X145135129Y-106508006D02*
X145135129Y-104911143D01*
X130896085Y-98573466D02*
X130896085Y-97945750D01*
X140429990Y-92614909D02*
X141167020Y-92540538D01*
X151915616Y-98671550D02*
X151915616Y-98038127D01*
X142305295Y-101032664D02*
X143399655Y-100825480D01*
X145565366Y-98244944D02*
X145812406Y-97603251D01*
X128522916Y-91327372D02*
X128522916Y-90689982D01*
X151875028Y-85832316D02*
X151780545Y-85611857D01*
X144977811Y-92194163D02*
X144081204Y-91866893D01*
X148694119Y-94398723D02*
X147875241Y-93768840D01*
X131574124Y-90161357D02*
X131574124Y-89446269D01*
X131574124Y-104250956D02*
X131574124Y-103154094D01*
X154866941Y-90871379D02*
X155028379Y-90702098D01*
X141167020Y-101106974D02*
X142305295Y-101032664D01*
X154426053Y-98839427D02*
X154382718Y-98618937D01*
X132252194Y-96723277D02*
X132252194Y-95758036D01*
X148536649Y-107531840D02*
X148536649Y-107531840D01*
X154300077Y-93383036D02*
X154079618Y-93327922D01*
X133541501Y-85174876D02*
X133576932Y-85391398D01*
X154174100Y-98492961D02*
X149638944Y-97579631D01*
X127844876Y-90689982D02*
X127844876Y-90375071D01*
X135277585Y-109641948D02*
X135277585Y-109641948D01*
X145135129Y-104250956D02*
X145135129Y-103154094D01*
X143777097Y-98823649D02*
X143777097Y-98823649D01*
X129167752Y-104035991D02*
X129167752Y-104035991D01*
X150898557Y-101958995D02*
X150898557Y-99695170D01*
X130049588Y-89139201D02*
X135592557Y-92855510D01*
X148398862Y-107504283D02*
X148398862Y-107504283D01*
X148864377Y-88968913D02*
X148864377Y-88087077D01*
X138238065Y-88383372D02*
X138238065Y-88383372D01*
X143440000Y-104382365D02*
X143440000Y-104250956D01*
X156059812Y-96453715D02*
X156059812Y-96453715D01*
X132884061Y-97327678D02*
X132726590Y-97579631D01*
X146772946Y-92855510D02*
X152315946Y-89139201D01*
X135675229Y-82395518D02*
X135435117Y-82399455D01*
X127510404Y-90332042D02*
X127341123Y-90493449D01*
X135642423Y-88489665D02*
X135642423Y-87411265D01*
X141405850Y-86290049D02*
X141405850Y-83909495D01*
X144796109Y-90689982D02*
X144796109Y-89575389D01*
X136911374Y-100095225D02*
X136911374Y-100095225D01*
X132065213Y-95910441D02*
X132065213Y-95910441D01*
X140852078Y-104319377D02*
X140852078Y-110870158D01*
X144796109Y-100363810D02*
X144796109Y-97470469D01*
X137892423Y-100500773D02*
X137892423Y-100500773D01*
X151237577Y-94509837D02*
X151237577Y-93893016D01*
X131913175Y-90388652D02*
X131913175Y-89673564D01*
X132252194Y-87751445D02*
X132252194Y-86869639D01*
X147123380Y-109913615D02*
X147119412Y-109673472D01*
X144796109Y-95682261D02*
X144796109Y-92127818D01*
X143434598Y-83186839D02*
X142804715Y-86304728D01*
X130616483Y-106366587D02*
X130522031Y-106587016D01*
X145422666Y-100107035D02*
X145422666Y-100107035D01*
X145813169Y-99908244D02*
X145813169Y-98512095D01*
X148186338Y-104250956D02*
X148186338Y-103154094D01*
X150220487Y-92796946D02*
X150220487Y-92144938D01*
X136659513Y-104350932D02*
X136659513Y-104250956D01*
X132591214Y-104250956D02*
X132591214Y-103154094D01*
X138354642Y-104250956D02*
X138354642Y-103154094D01*
X154646512Y-102146342D02*
X154772489Y-102177775D01*
X141167020Y-111185099D02*
X141395352Y-111098491D01*
X133608274Y-85438426D02*
X133608274Y-85075724D01*
X136369077Y-96939402D02*
X136521634Y-97615062D01*
X154111112Y-99091319D02*
X154315854Y-99024424D01*
X136320493Y-104250956D02*
X136320493Y-103154094D01*
X151915616Y-92094462D02*
X151915616Y-91435008D01*
X141167020Y-99910197D02*
X141167020Y-99910197D01*
X154772489Y-102177775D02*
X154937833Y-102130534D01*
X127459195Y-102099040D02*
X127459195Y-102099040D01*
X149203427Y-90689982D02*
X149203427Y-90495036D01*
X137860135Y-89076243D02*
X137324735Y-89926555D01*
X129879025Y-96540324D02*
X129879025Y-95910441D01*
X155055936Y-101988810D02*
X155059873Y-101748668D01*
X137104306Y-98839427D02*
X137104306Y-98839427D01*
X144851865Y-96225383D02*
X144851865Y-96225383D01*
X139115354Y-93166697D02*
X139740933Y-92828441D01*
X141066831Y-86060893D02*
X141066831Y-83909495D01*
X141066831Y-101100322D02*
X141066831Y-99900218D01*
X144796109Y-104250956D02*
X144796109Y-103154094D01*
X136127957Y-104350932D02*
X137482205Y-104350932D01*
X141363858Y-81364085D02*
X141135526Y-81265666D01*
X129879025Y-94293162D02*
X129879025Y-93676188D01*
X133608274Y-104250956D02*
X133608274Y-103154094D01*
X130218045Y-104350932D02*
X130218045Y-104250956D01*
X136253934Y-91753215D02*
X135907498Y-92351603D01*
X141066831Y-92550670D02*
X141066831Y-91381358D01*
X144776181Y-95488353D02*
X144776181Y-95488353D01*
X139101499Y-99284068D02*
X139101499Y-99284068D01*
X148186338Y-107258311D02*
X148186338Y-106161296D01*
X132159696Y-95847453D02*
X132159696Y-95847453D01*
X135273679Y-109882121D02*
X135273679Y-109882121D01*
X138742002Y-83021464D02*
X138742002Y-83021464D01*
X143779019Y-100710276D02*
X143779019Y-98821330D01*
X129539975Y-101372416D02*
X129539975Y-100707316D01*
X149881467Y-94779338D02*
X149881467Y-94162639D01*
X145135129Y-100224864D02*
X145135129Y-97470469D01*
X143399655Y-100825511D02*
X144441617Y-100509074D01*
X131235105Y-94562632D02*
X131235105Y-93945811D01*
X152593656Y-104250956D02*
X152593656Y-102418376D01*
X136998532Y-93670695D02*
X136998532Y-90689982D01*
X147481595Y-97437907D02*
X147481595Y-97437907D01*
X128183896Y-91186869D02*
X128183896Y-90689982D01*
X146491208Y-91342082D02*
X146491208Y-90689982D01*
X134286344Y-89785594D02*
X134286344Y-88903788D01*
X138556943Y-98835460D02*
X138556943Y-98835460D01*
X130557065Y-104350932D02*
X130557065Y-104250956D01*
X140820584Y-81580607D02*
X140820584Y-81580607D01*
X145964963Y-95511363D02*
X145812406Y-94835704D01*
X143277127Y-87060588D02*
X144032987Y-83281291D01*
X138693662Y-100747081D02*
X138693662Y-98948069D01*
X135999723Y-99629130D02*
X135999723Y-99629130D01*
X135273679Y-82568736D02*
X135277616Y-82808909D01*
X143466092Y-109232463D02*
X143576291Y-109417491D01*
X148525357Y-85738994D02*
X148525357Y-84952037D01*
X131574124Y-98438914D02*
X131574124Y-97810130D01*
X133671445Y-84981974D02*
X133671445Y-84981974D01*
X151237577Y-104382426D02*
X151237577Y-104250956D01*
X133561185Y-107244456D02*
X133702909Y-107437358D01*
X137482205Y-104350932D02*
X137482205Y-104350932D01*
X154615018Y-90304484D02*
X147245389Y-93390910D01*
X153949765Y-96540324D02*
X153949765Y-95910441D01*
X132159696Y-96634806D02*
X132159696Y-96634806D01*
X143143277Y-91607554D02*
X142169919Y-91436808D01*
X142606412Y-99617900D02*
X141913114Y-99834544D01*
X146830258Y-90689982D02*
X146830258Y-90121226D01*
X147119412Y-109673472D02*
X147119412Y-109673472D01*
X154426053Y-98839427D02*
X154426053Y-98839427D01*
X152932675Y-98871775D02*
X152932675Y-98242961D01*
X143779019Y-84551097D02*
X143779019Y-83909495D01*
X132726590Y-97579631D02*
X128159940Y-98492991D01*
X138934384Y-100821055D02*
X140028745Y-101031382D01*
X137337552Y-87807994D02*
X137337552Y-86191295D01*
X139245877Y-104350871D02*
X138301053Y-109106486D01*
X145565366Y-94201396D02*
X145229764Y-93611369D01*
X142606412Y-99617900D02*
X141913114Y-99834544D01*
X134286344Y-107113414D02*
X134286344Y-106017039D01*
X143151181Y-104382365D02*
X143151181Y-104382365D01*
X155059873Y-101748668D02*
X155059873Y-101748668D01*
X133104520Y-94934123D02*
X132159696Y-95847453D01*
X138742002Y-83021464D02*
X138521543Y-82966349D01*
X134286344Y-104350932D02*
X134286344Y-104250956D01*
X143440000Y-93358043D02*
X143440000Y-91689586D01*
X146152188Y-84971782D02*
X146152188Y-83909495D01*
X134112332Y-107374400D02*
X134112332Y-107374400D01*
X137774533Y-94785991D02*
X138116666Y-94159861D01*
X136978299Y-90493449D02*
X136978299Y-90493449D01*
X130805448Y-85548869D02*
X130805448Y-85548869D01*
X154627805Y-90689982D02*
X154627805Y-90304271D01*
X128183896Y-101935069D02*
X128183896Y-101265696D01*
X147508298Y-98891368D02*
X147508298Y-97470469D01*
X146961972Y-110082896D02*
X146961972Y-110082896D01*
X143218686Y-93174998D02*
X143765286Y-93627116D01*
X137482236Y-96225383D02*
X137482236Y-96225383D01*
X149542447Y-99722148D02*
X149542447Y-97470469D01*
X126827786Y-96540324D02*
X126827786Y-95910441D01*
X127498563Y-90902873D02*
X134490262Y-93800334D01*
X146835996Y-110114329D02*
X146961972Y-110082896D01*
X148824033Y-107275950D02*
X148788602Y-107059428D01*
X142083890Y-92672740D02*
X142083890Y-91431529D01*
X146152188Y-83909495D02*
X146152188Y-83335887D01*
X146993436Y-104382426D02*
X148883084Y-104382426D01*
X133608274Y-107308574D02*
X133608274Y-107028697D01*
X133947293Y-93575328D02*
X133947293Y-92904734D01*
X136998532Y-100131236D02*
X136998532Y-98780101D01*
X148298978Y-95684062D02*
X148883084Y-96225383D01*
X147060361Y-82537242D02*
X146898953Y-82367961D01*
X147245389Y-93390910D02*
X146993436Y-93233439D01*
X140028745Y-101031382D02*
X141167020Y-101106974D01*
X131913175Y-87412425D02*
X131913175Y-86530619D01*
X139371701Y-106997233D02*
X139371701Y-104250956D01*
X147469785Y-95012858D02*
X148298978Y-95684062D01*
X139032681Y-104350871D02*
X139032681Y-104250956D01*
X128183896Y-99078593D02*
X128183896Y-98488200D01*
X154855161Y-90300547D02*
X154615018Y-90304484D01*
X127505826Y-90905894D02*
X127505826Y-90689982D01*
X128861936Y-96540324D02*
X128861936Y-95910441D01*
X130710965Y-100886577D02*
X129167752Y-103437632D01*
X149260983Y-94902629D02*
X154174069Y-93926280D01*
X137337552Y-106294200D02*
X137337552Y-104698130D01*
X134490262Y-93800334D02*
X133671445Y-94430217D01*
X145009275Y-89926555D02*
X145009275Y-89926555D01*
X137676572Y-104250956D02*
X137676572Y-103154094D01*
X146552548Y-109925334D02*
X146670651Y-110067057D01*
X147508298Y-90325023D02*
X147508298Y-89443187D01*
X140150846Y-91436808D02*
X140150846Y-91436808D01*
X143434598Y-83186839D02*
X142804715Y-86304728D01*
X151915616Y-89407603D02*
X151915616Y-88692057D01*
X139032681Y-108692332D02*
X139032681Y-105424022D01*
X149260983Y-94902629D02*
X154174069Y-93926310D01*
X127498563Y-90902873D02*
X127498563Y-90902873D01*
X154615018Y-90304484D02*
X147245389Y-93390910D01*
X132726590Y-97579631D02*
X132726590Y-97579631D01*
X129955106Y-88729777D02*
X129907865Y-88946299D01*
X127624539Y-102146281D02*
X127624539Y-102146281D01*
X151576596Y-104382426D02*
X151576596Y-104250956D01*
X145813169Y-104250956D02*
X145813169Y-103154094D01*
X155305875Y-96540324D02*
X155305875Y-95910441D01*
X138015592Y-104659465D02*
X138015592Y-104250956D01*
X130557065Y-98640727D02*
X130557065Y-98013560D01*
X153229306Y-103469096D02*
X153229306Y-103469096D01*
X140907193Y-81352275D02*
X140820584Y-81580607D01*
X143989652Y-83060832D02*
X143781064Y-82934855D01*
X154315854Y-99024424D02*
X154426053Y-98839427D01*
X152410398Y-88729777D02*
X152217526Y-88599864D01*
X128522916Y-94023692D02*
X128522916Y-93406535D01*
X132884061Y-97327678D02*
X132884061Y-97327678D01*
X144064450Y-88351817D02*
X144064450Y-88351817D01*
X130896085Y-102848735D02*
X130896085Y-100148936D01*
X141167020Y-99910197D02*
X140420926Y-99835856D01*
X135273679Y-82568736D02*
X135277616Y-82808909D01*
X133419461Y-96225383D02*
X133419461Y-96225383D01*
X143781034Y-82934855D02*
X143781034Y-82934855D01*
X144777494Y-96962413D02*
X144563962Y-97651469D01*
X129879025Y-104250956D02*
X129879025Y-102261882D01*
X153271726Y-101575938D02*
X153271726Y-100907176D01*
X147508298Y-95044017D02*
X147508298Y-93280803D01*
X137676572Y-95099467D02*
X137676572Y-92076640D01*
X153229306Y-103469096D02*
X151686063Y-100918071D01*
X130218045Y-94360514D02*
X130218045Y-93743571D01*
X134112332Y-107374400D02*
X136127957Y-104350932D01*
X126522244Y-95910441D02*
X126305722Y-95997050D01*
X147119412Y-109673472D02*
X144914823Y-104382426D01*
X135844510Y-109893840D02*
X138143582Y-104350871D01*
X133947293Y-91752452D02*
X133947293Y-91037364D01*
X132591214Y-104350932D02*
X132591214Y-104250956D01*
X146830258Y-92817088D02*
X146830258Y-92072673D01*
X135981442Y-90689982D02*
X135981442Y-90598918D01*
X133561185Y-107244456D02*
X133561185Y-107244456D01*
X130805448Y-85548869D02*
X130585019Y-85643351D01*
X155028379Y-90702098D02*
X155024442Y-90461985D01*
X133419461Y-96225383D02*
X134848538Y-95012858D01*
X133671445Y-94430217D02*
X128285916Y-93359416D01*
X126293912Y-96453715D02*
X126293912Y-96453715D01*
X147508298Y-92362498D02*
X147508298Y-91621928D01*
X135844510Y-82556926D02*
X135675229Y-82395518D01*
X133513944Y-104350932D02*
X135403592Y-104350932D01*
X146334348Y-99642985D02*
X146334348Y-99642985D01*
X141450467Y-81580607D02*
X141363858Y-81364085D01*
X151237577Y-102518229D02*
X151237577Y-100066630D01*
X143781064Y-109484416D02*
X143781064Y-109484416D01*
X138820706Y-109385997D02*
X138930936Y-109200969D01*
X147847318Y-104382426D02*
X147847318Y-104250956D01*
X146111569Y-91721721D02*
X151780545Y-86052775D01*
X131246366Y-100004680D02*
X131246366Y-100004680D01*
X154048123Y-99091349D02*
X154111112Y-99091349D01*
X145229764Y-98839427D02*
X145229764Y-98839427D01*
X146961972Y-110082896D02*
X147123380Y-109913615D01*
X147056424Y-82777415D02*
X147060361Y-82537242D01*
X144253476Y-104382365D02*
X144253476Y-104382365D01*
X146993436Y-93233439D02*
X146772946Y-92855510D01*
X154966825Y-90689982D02*
X154966825Y-90407054D01*
X153949765Y-90689982D02*
X153949765Y-90583110D01*
X152445859Y-88946299D02*
X152445859Y-88946299D01*
X139740933Y-92828441D02*
X140429990Y-92614909D01*
X130557065Y-86019084D02*
X130557065Y-85708567D01*
X146772977Y-92855510D02*
X152315946Y-89139201D01*
X130585019Y-85643351D02*
X130585019Y-85643351D01*
X134625363Y-86964030D02*
X134625363Y-85890574D01*
X141481961Y-110870158D02*
X141481961Y-110870158D01*
X136568875Y-91186351D02*
X131025907Y-85643351D01*
X140049741Y-101032786D02*
X140049741Y-99721537D01*
X146269101Y-104382426D02*
X146269101Y-104382426D01*
X145964963Y-96926127D02*
X146017118Y-96225383D01*
X144796109Y-88262797D02*
X144796109Y-86594004D01*
X135277616Y-82808909D02*
X137860135Y-89076243D01*
X147481595Y-97437907D02*
X146447202Y-98156382D01*
X128183896Y-96540324D02*
X128183896Y-95910441D01*
X141913114Y-99834544D02*
X141167020Y-99910197D01*
X145229764Y-93611369D02*
X145229764Y-93611369D01*
X139025418Y-87092082D02*
X138238065Y-88383372D01*
X146658811Y-82364024D02*
X146489499Y-82525431D01*
X144559537Y-94799296D02*
X144776181Y-95488353D01*
X136369077Y-95524638D02*
X136316922Y-96225383D01*
X153024564Y-104295817D02*
X153229306Y-104067515D01*
X133887937Y-84946544D02*
X133671445Y-84981974D01*
X148757108Y-85391398D02*
X148804349Y-85174876D01*
X140852078Y-104319377D02*
X140852078Y-104319377D01*
X148186338Y-95592906D02*
X148186338Y-94008128D01*
X135642423Y-91141703D02*
X135642423Y-90689982D01*
X135303403Y-105587779D02*
X135303403Y-104500346D01*
X126207303Y-96225383D02*
X126293912Y-96453715D01*
X154111112Y-99091319D02*
X154111112Y-99091319D01*
X141363858Y-81364085D02*
X141363858Y-81364085D01*
X138269559Y-83312785D02*
X138269559Y-83312785D01*
X145813169Y-104382426D02*
X145813169Y-104250956D01*
X144040891Y-109358470D02*
X144040891Y-109358470D01*
X145229764Y-93611369D02*
X146433927Y-94294413D01*
X151780576Y-106398051D02*
X149764920Y-104382426D01*
X135886350Y-98156382D02*
X134848538Y-97437907D01*
X138269559Y-83312785D02*
X139025418Y-87092082D01*
X135981442Y-88998179D02*
X135981442Y-87918162D01*
X142804715Y-86304728D02*
X141639463Y-84415080D01*
X147169278Y-105732707D02*
X147169278Y-104644603D01*
X134625363Y-97470469D02*
X134625363Y-97248546D01*
X146658811Y-82364024D02*
X146489499Y-82525431D01*
X144559537Y-94799296D02*
X144776181Y-95488353D01*
X145812406Y-97603251D02*
X145964963Y-96926127D01*
X129384275Y-104264323D02*
X129671659Y-104350932D01*
X144064450Y-88351848D02*
X143277127Y-87060588D01*
X153949765Y-96540324D02*
X153949765Y-95910441D01*
X147245389Y-93390910D02*
X146993436Y-93233439D01*
X153300138Y-103768290D02*
X153229306Y-103469096D01*
X147060361Y-82537242D02*
X146898953Y-82367961D01*
X147119412Y-109673472D02*
X144914823Y-104382426D01*
X143143277Y-91607554D02*
X142169919Y-91436808D01*
X145812406Y-94835704D02*
X145812406Y-94835704D01*
X140388791Y-101055278D02*
X140388791Y-99825938D01*
X147847318Y-89986003D02*
X147847318Y-89104167D01*
X141450467Y-81580607D02*
X141363858Y-81364085D01*
X138015592Y-104250956D02*
X138015592Y-103154094D01*
X145765134Y-91186351D02*
X145355741Y-90493449D01*
X145474149Y-100080821D02*
X145474149Y-98702311D01*
X143781064Y-109484416D02*
X143844052Y-109484416D01*
X153610745Y-91391978D02*
X153610745Y-90725077D01*
X150898557Y-92515941D02*
X150898557Y-91860972D01*
X154079618Y-93327922D02*
X148694119Y-94398723D01*
X135642423Y-94463267D02*
X135642423Y-92173869D01*
X150559506Y-96540324D02*
X150559506Y-95910441D01*
X148186338Y-89646952D02*
X148186338Y-88765147D01*
X134964383Y-104250956D02*
X134964383Y-103154094D01*
X151576596Y-103077433D02*
X151576596Y-100206706D01*
X141904050Y-92616221D02*
X142593106Y-92832866D01*
X144118039Y-104250956D02*
X144118039Y-103154094D01*
X145812406Y-97603251D02*
X145812406Y-97603251D01*
X143440000Y-83909495D02*
X143440000Y-83177897D01*
X154772489Y-102177775D02*
X154937833Y-102130534D01*
X140907193Y-81352275D02*
X140820584Y-81580607D01*
X138344388Y-109326945D02*
X138344388Y-109326945D01*
X127498563Y-101547892D02*
X127337155Y-101717173D01*
X148253171Y-85076457D02*
X145009305Y-89926555D01*
X145813169Y-97470469D02*
X145813169Y-94839091D01*
X146458005Y-92320109D02*
X146458005Y-92320109D01*
X150898557Y-98471354D02*
X150898557Y-97833323D01*
X127750546Y-90335978D02*
X127510404Y-90332042D01*
X137676572Y-100411540D02*
X137676572Y-97470469D01*
X127459195Y-102099040D02*
X127624539Y-102146281D01*
X133269254Y-104250956D02*
X133269254Y-103154094D01*
X139178952Y-91607554D02*
X139178952Y-91607554D01*
X127341123Y-101957316D02*
X127341123Y-101957316D01*
X137324735Y-89926555D02*
X134080838Y-85076457D01*
X151915616Y-101013316D02*
X151915616Y-100346812D01*
X138301053Y-109106486D02*
X138344388Y-109326945D01*
X151623075Y-103154094D02*
X130710965Y-103154094D01*
X150300321Y-96540324D02*
X155843289Y-96540324D01*
X141450467Y-84226146D02*
X141450467Y-81580607D01*
X146491208Y-88790233D02*
X146491208Y-87710856D01*
X128861936Y-98977061D02*
X128861936Y-98352580D01*
X127624539Y-102146281D02*
X127750516Y-102114879D01*
X128191434Y-93957835D02*
X128191434Y-93957835D01*
X139740933Y-92828441D02*
X140429990Y-92614909D01*
X130557065Y-100950419D02*
X130557065Y-100288524D01*
X136768674Y-94205821D02*
X136521634Y-94847514D01*
X147847318Y-86756083D02*
X147847318Y-85683268D01*
X132591214Y-88090495D02*
X132591214Y-87208659D01*
X130896085Y-94495280D02*
X130896085Y-93878398D01*
X141405850Y-111031443D02*
X141405850Y-104250956D01*
X147847318Y-106749766D02*
X147847318Y-105655742D01*
X146993466Y-104382426D02*
X148883084Y-104382426D01*
X148298978Y-95684062D02*
X148883084Y-96225383D01*
X137337552Y-90689982D02*
X137337552Y-89906199D01*
X141395352Y-111098491D02*
X141481961Y-110870158D01*
X135642423Y-83694255D02*
X135642423Y-82396067D01*
X143844052Y-109484416D02*
X144040891Y-109358470D01*
X133765897Y-98115031D02*
X135165921Y-99127269D01*
X134625363Y-98736430D02*
X134625363Y-97470469D01*
X143232541Y-99275767D02*
X142606412Y-99617900D01*
X138143582Y-104350871D02*
X139245877Y-104350871D01*
X144032987Y-83281291D02*
X144032987Y-83281291D01*
X142761960Y-92925181D02*
X142761960Y-91540660D01*
X127341123Y-90493449D02*
X127341123Y-90493449D01*
X151780545Y-85611857D02*
X151560086Y-85517375D01*
X143100980Y-104250956D02*
X143100980Y-103154094D01*
X141913114Y-99834544D02*
X141167020Y-99910197D01*
X143277127Y-87060588D02*
X144032987Y-83281291D01*
X151560086Y-85517375D02*
X151560086Y-85517375D01*
X139115354Y-93166697D02*
X139115354Y-93166697D01*
X136998532Y-90689982D02*
X136998532Y-89438823D01*
X141066831Y-86060893D02*
X141066831Y-83909495D01*
X136127957Y-104350932D02*
X136127957Y-104350932D01*
X150898557Y-106397868D02*
X150898557Y-105516032D01*
X150205838Y-95815959D02*
X149260983Y-94902629D01*
X131574124Y-104350932D02*
X131574124Y-104250956D01*
X151875028Y-85832316D02*
X151780545Y-85611857D01*
X147847318Y-98643016D02*
X147847318Y-97470469D01*
X151576596Y-104250956D02*
X151576596Y-103154094D01*
X150268827Y-95910441D02*
X150268827Y-95910441D01*
X146898953Y-82367961D02*
X146898953Y-82367961D01*
X152315946Y-89139201D02*
X152315946Y-89139201D01*
X133269254Y-97470469D02*
X133269254Y-94350261D01*
X133608274Y-98374980D02*
X133608274Y-97470469D01*
X136998532Y-97470469D02*
X136998532Y-93798716D01*
X136768674Y-98249369D02*
X137104306Y-98839427D01*
X139115354Y-93166697D02*
X139740933Y-92828441D01*
X155028379Y-90702098D02*
X155024442Y-90461955D01*
X140049741Y-104319377D02*
X140049741Y-104250956D01*
X133860379Y-107500346D02*
X134112332Y-107374400D01*
X154288785Y-91111003D02*
X154288785Y-90689982D01*
X144225705Y-98277049D02*
X143777097Y-98823649D01*
X142169919Y-91436808D02*
X142169919Y-91436808D01*
X153271726Y-103888377D02*
X153271726Y-103648234D01*
X133104520Y-94934123D02*
X133104520Y-94934123D01*
X154937833Y-102130534D02*
X155055936Y-101988810D01*
X150205808Y-95815959D02*
X149260983Y-94902629D01*
X149203427Y-99162913D02*
X149203427Y-97470469D01*
X138344388Y-109326945D02*
X138553006Y-109452922D01*
X144851865Y-96225383D02*
X144851865Y-96225383D01*
X152593656Y-94240367D02*
X152593656Y-93623393D01*
X148446103Y-84934733D02*
X148253171Y-85076457D01*
X155983914Y-96484080D02*
X155983914Y-95971507D01*
X133860379Y-107500346D02*
X134112332Y-107374400D01*
X148694150Y-107468852D02*
X148694150Y-107468852D01*
X156158231Y-96225383D02*
X156055875Y-95997050D01*
X147508298Y-97470469D02*
X147508298Y-97416118D01*
X144253476Y-104382365D02*
X146552548Y-109925334D01*
X142083890Y-104250956D02*
X142083890Y-103154094D01*
X146017118Y-96225383D02*
X146017118Y-96225383D01*
X138521543Y-82966349D02*
X138324674Y-83092296D01*
X128183896Y-93953257D02*
X128183896Y-93379466D01*
X136768674Y-94205821D02*
X136521634Y-94847514D01*
X154288785Y-90689982D02*
X154288785Y-90441111D01*
X130557065Y-94427897D02*
X130557065Y-93810984D01*
X137556607Y-96971446D02*
X137482236Y-96225383D01*
X134625363Y-104350932D02*
X134625363Y-104250956D01*
X133671445Y-84981974D02*
X133541501Y-85174876D01*
X150559506Y-92656443D02*
X150559506Y-92002940D01*
X136521634Y-94847514D02*
X136521634Y-94847514D01*
X151875028Y-106618510D02*
X151875028Y-106618510D01*
X136316922Y-96225383D02*
X136369077Y-96939402D01*
X138615994Y-109452922D02*
X138820706Y-109385997D01*
X134964383Y-90463664D02*
X134964383Y-89581828D01*
X127337155Y-90733592D02*
X127337155Y-90733592D01*
X140820584Y-84257640D02*
X140631650Y-84446574D01*
X151339597Y-85611857D02*
X145765134Y-91186351D01*
X138344388Y-109326945D02*
X138553006Y-109452922D01*
X130896085Y-106876628D02*
X130896085Y-106086985D01*
X143777097Y-98823649D02*
X143232541Y-99275767D01*
X148694119Y-94398723D02*
X147875241Y-93768840D01*
X139727628Y-99622325D02*
X139727628Y-99622325D01*
X148446103Y-84934733D02*
X148446103Y-84934733D01*
X147508298Y-87264628D02*
X147508298Y-86190165D01*
X148186338Y-98394694D02*
X148186338Y-97470469D01*
X137774533Y-94785991D02*
X138116666Y-94159861D01*
X141167020Y-92540538D02*
X141904050Y-92616221D01*
X154898465Y-101579387D02*
X154898465Y-101579387D01*
X130557065Y-96540324D02*
X130557065Y-95910441D01*
X154048123Y-99091319D02*
X154111112Y-99091319D01*
X128065457Y-93402751D02*
X128065457Y-93402751D01*
X144914823Y-104382426D02*
X146269101Y-104382426D01*
X137892423Y-100500773D02*
X138934384Y-100821055D01*
X147169278Y-92589793D02*
X147169278Y-91847300D01*
X127982846Y-93831828D02*
X128191434Y-93957835D01*
X152001004Y-88635295D02*
X146458035Y-92320109D01*
X144457059Y-104250956D02*
X144457059Y-103154094D01*
X129085111Y-103736827D02*
X129085111Y-103736827D01*
X135642423Y-104250956D02*
X135642423Y-103154094D01*
X135303403Y-104250956D02*
X135303403Y-103154094D01*
X145229764Y-98839427D02*
X145229764Y-98839427D01*
X139710721Y-92844767D02*
X139710721Y-91514109D01*
X146447202Y-98156382D02*
X145229764Y-98839427D01*
X143218686Y-93174998D02*
X143765286Y-93627116D01*
X138015592Y-100538646D02*
X138015592Y-98119212D01*
X135981442Y-104250956D02*
X135981442Y-103154094D01*
X146152188Y-89298777D02*
X146152188Y-88217753D01*
X149881467Y-105380809D02*
X149881467Y-104498942D01*
X133702909Y-107437358D02*
X133860379Y-107500346D01*
X154615018Y-90304484D02*
X154615018Y-90304484D01*
X145135129Y-97470469D02*
X145135129Y-90689982D01*
X148446103Y-84934733D02*
X148253171Y-85076457D01*
X135642423Y-90689982D02*
X135642423Y-90259898D01*
X148525357Y-93499431D02*
X148525357Y-92854869D01*
X145964963Y-95511363D02*
X145964963Y-95511363D01*
X145474149Y-90315837D02*
X145474149Y-89231547D01*
X134625363Y-106604869D02*
X134625363Y-105511485D01*
X128183896Y-99078593D02*
X128183896Y-98488200D01*
X127505826Y-90689982D02*
X127505826Y-90336375D01*
X140938687Y-111086680D02*
X141167020Y-111185099D01*
X134490262Y-93800334D02*
X133671414Y-94430217D01*
X151915616Y-104382426D02*
X151915616Y-104250956D01*
X154426023Y-93579844D02*
X154300077Y-93383036D01*
X130522031Y-106587016D02*
X130616483Y-106807475D01*
X132252194Y-104350932D02*
X132252194Y-104250956D01*
X126522244Y-95910441D02*
X126305722Y-95997050D01*
X148694150Y-107468852D02*
X148824033Y-107275950D01*
X141135526Y-81265666D02*
X140907193Y-81352275D01*
X152217526Y-88599864D02*
X152000974Y-88635295D01*
X141167020Y-85895305D02*
X141167020Y-85895305D01*
X148788602Y-107059428D02*
X148788602Y-107059428D01*
X149881467Y-104382426D02*
X149881467Y-104250956D01*
X128285916Y-99091349D02*
X128285916Y-99091349D01*
X129200955Y-94158427D02*
X129200955Y-93541362D01*
X130049588Y-89139201D02*
X135592557Y-92855510D01*
X154370908Y-93800364D02*
X154426023Y-93579844D01*
X141167020Y-91375285D02*
X140150846Y-91436808D01*
X140420926Y-99835856D02*
X139727628Y-99622325D01*
X137482205Y-104350932D02*
X135277585Y-109641948D01*
X144559537Y-94799296D02*
X144559537Y-94799296D01*
X132065213Y-96540324D02*
X132159696Y-96634806D01*
X128159940Y-98492991D02*
X128159940Y-98492991D01*
X130557065Y-92170359D02*
X130557065Y-91499369D01*
X132591214Y-90689982D02*
X132591214Y-90128184D01*
X128191434Y-93957835D02*
X133104520Y-94934123D01*
X146993436Y-104382426D02*
X146993436Y-104382426D01*
X145813169Y-93942302D02*
X145813169Y-91138316D01*
X130585019Y-85643351D02*
X130490506Y-85863810D01*
X148864377Y-98603709D02*
X148864377Y-97470469D01*
X143779019Y-104250956D02*
X143779019Y-103154094D01*
X133671414Y-94430217D02*
X128285916Y-93359416D01*
X145422666Y-100107035D02*
X146334348Y-99642985D01*
X153610745Y-94038249D02*
X153610745Y-93421153D01*
X144118039Y-100607341D02*
X144118039Y-98408244D01*
X145009305Y-89926555D02*
X144473905Y-89044719D01*
X130616483Y-106807475D02*
X130836972Y-106901988D01*
X134490262Y-93800334D02*
X134490262Y-93800334D01*
X147508298Y-104382426D02*
X147508298Y-104250956D01*
X148568143Y-98115031D02*
X151623075Y-103154094D01*
X141135526Y-81265666D02*
X140907193Y-81352275D01*
X135642423Y-110059581D02*
X135642423Y-108766368D01*
X138143582Y-104350871D02*
X139245877Y-104350871D01*
X130896085Y-92310862D02*
X130896085Y-91639903D01*
X128861936Y-91467875D02*
X128861936Y-90796702D01*
X146898953Y-82367961D02*
X146658811Y-82364024D01*
X129167752Y-103437632D02*
X129085111Y-103736827D01*
X144225705Y-98277049D02*
X144225705Y-98277049D01*
X134286344Y-98491313D02*
X134286344Y-97470469D01*
X143576291Y-109417491D02*
X143576291Y-109417491D01*
X145474149Y-104250956D02*
X145474149Y-103154094D01*
X137860135Y-89076243D02*
X137860135Y-89076243D01*
X146489499Y-82525431D02*
X146489499Y-82525431D01*
X133887937Y-84946544D02*
X133671445Y-84981974D01*
X127982846Y-93831828D02*
X127982846Y-93831828D01*
X137482205Y-104350932D02*
X135277616Y-109641948D01*
X155811795Y-95910441D02*
X155811765Y-95910441D01*
X145229764Y-98839427D02*
X145565366Y-98244944D01*
X127341123Y-90493449D02*
X127337155Y-90733592D01*
X133269254Y-104595622D02*
X133269254Y-104250956D01*
X153271726Y-91532481D02*
X153271726Y-90867076D01*
X151780545Y-85611857D02*
X151780545Y-85611857D01*
X143560575Y-82978190D02*
X143434598Y-83186839D01*
X132159696Y-96634806D02*
X132884061Y-97327678D01*
X150559506Y-98404612D02*
X150559506Y-97765025D01*
X150559506Y-106058848D02*
X150559506Y-105177012D01*
X136911374Y-100095225D02*
X137892423Y-100500773D01*
X139371701Y-88862773D02*
X139371701Y-85711924D01*
X129167752Y-104035991D02*
X129384275Y-104264323D01*
X142761960Y-100946208D02*
X142761960Y-99532908D01*
X154382718Y-98618937D02*
X154382718Y-98618937D01*
X141363858Y-81364085D02*
X141135526Y-81265666D01*
X127844876Y-102075724D02*
X127844876Y-101405314D01*
X126522244Y-96540324D02*
X132065213Y-96540324D01*
X149203427Y-104250956D02*
X149203427Y-103154094D01*
X154315854Y-99024424D02*
X154315854Y-99024424D01*
X138867978Y-83218303D02*
X138742002Y-83021464D01*
X141405850Y-111070872D02*
X141405850Y-111031443D01*
X155644895Y-96540324D02*
X155644895Y-95910441D01*
X139497830Y-86336253D02*
X138867978Y-83218303D01*
X146269101Y-104382426D02*
X148284726Y-107405894D01*
X126305722Y-95997050D02*
X126305722Y-95997050D01*
X142593106Y-92832866D02*
X143218686Y-93174998D01*
X132632108Y-104350932D02*
X132632108Y-104350932D01*
X134848538Y-95012858D02*
X135886350Y-94294413D01*
X135435086Y-110051402D02*
X135561063Y-110082835D01*
X146491208Y-109777476D02*
X146491208Y-108165812D01*
X141167020Y-111185099D02*
X141395352Y-111098491D01*
X129085111Y-103736827D02*
X129167752Y-104035991D01*
X137676572Y-91664653D02*
X137676572Y-90689982D01*
X146111569Y-91721721D02*
X151780545Y-86052775D01*
X135886350Y-94294413D02*
X137104306Y-93611369D01*
X140429990Y-92614909D02*
X140429990Y-92614909D01*
X134286344Y-95489848D02*
X134286344Y-93957194D01*
X149542447Y-94846690D02*
X149542447Y-94230052D01*
X153229306Y-104067515D02*
X153300138Y-103768290D01*
X152315946Y-89139201D02*
X152445859Y-88946299D01*
X153024564Y-104295817D02*
X153229306Y-104067515D01*
X151560086Y-106933452D02*
X151560086Y-106933452D01*
X140049741Y-104250956D02*
X140049741Y-103154094D01*
X130585019Y-86084269D02*
X130585019Y-86084269D01*
X145355741Y-90493449D02*
X148757108Y-85391398D01*
X150300321Y-96540324D02*
X155843289Y-96540324D01*
X144796109Y-91893809D02*
X144796109Y-90689982D01*
X148525357Y-95893870D02*
X148525357Y-94268931D01*
X151623075Y-103154094D02*
X151623075Y-103154094D01*
X136768674Y-98249369D02*
X136768674Y-98249369D01*
X132930234Y-90689982D02*
X132930234Y-90355479D01*
X152725369Y-104382426D02*
X153024564Y-104295817D01*
X127337155Y-101717173D02*
X127337155Y-101717173D01*
X144096005Y-109137980D02*
X143151181Y-104382365D01*
X156055875Y-95997050D02*
X155811795Y-95910441D01*
X144441617Y-100509074D02*
X144441617Y-100509074D01*
X135886350Y-94294413D02*
X137104306Y-93611369D01*
X141066831Y-92550670D02*
X141066831Y-91381358D01*
X134964383Y-104350932D02*
X134964383Y-104250956D01*
X147847318Y-104250956D02*
X147847318Y-103154094D01*
X138015592Y-91104258D02*
X138015592Y-90689982D01*
X143440000Y-104250956D02*
X143440000Y-103154094D01*
X134112332Y-107374400D02*
X136127957Y-104350932D01*
X132930234Y-93153819D02*
X132930234Y-92483134D01*
X152593656Y-104382426D02*
X152593656Y-104250956D01*
X135844510Y-109893840D02*
X138143582Y-104350871D01*
X141450467Y-84226146D02*
X141450467Y-84226146D01*
X146152188Y-104382426D02*
X146152188Y-104250956D01*
X138248410Y-91866893D02*
X137356229Y-92194163D01*
X141167020Y-92540538D02*
X141167020Y-92540538D01*
X151560086Y-106933452D02*
X151780576Y-106838969D01*
X147875241Y-93768840D02*
X154866941Y-90871379D01*
X150205838Y-96634806D02*
X150300321Y-96540324D01*
X128018186Y-99024424D02*
X128222928Y-99091349D01*
X143277127Y-87060588D02*
X143277127Y-87060588D01*
X151339597Y-85611857D02*
X145765134Y-91186351D01*
X135273679Y-109882121D02*
X135435086Y-110051402D01*
X138556943Y-98835460D02*
X138108335Y-98290904D01*
X140631650Y-84446574D02*
X140631650Y-84446574D01*
X146491208Y-104250956D02*
X146491208Y-103154094D01*
X128183896Y-90689982D02*
X128183896Y-90515605D01*
X150205838Y-96634806D02*
X150205838Y-96634806D01*
X147508298Y-106241252D02*
X147508298Y-105150187D01*
X127498563Y-101547892D02*
X127337155Y-101717173D01*
X140727811Y-104319377D02*
X140727811Y-104250956D01*
X146830258Y-110112681D02*
X146830258Y-108979472D01*
X143779019Y-90212687D02*
X143779019Y-87883708D01*
X138934384Y-100821055D02*
X138934384Y-100821055D01*
X130218045Y-96540324D02*
X130218045Y-95910441D01*
X139710721Y-88302409D02*
X139710721Y-85981395D01*
X150559506Y-104250956D02*
X150559506Y-103154094D01*
X133947293Y-89446574D02*
X133947293Y-88564769D01*
X149881467Y-87951854D02*
X149881467Y-87070018D01*
X132930234Y-94899485D02*
X132930234Y-94282847D01*
X146334348Y-99642985D02*
X147168119Y-99140544D01*
X145765134Y-91186351D02*
X145355741Y-90493449D01*
X144081204Y-91866893D02*
X144081204Y-91866893D01*
X143466092Y-109232463D02*
X143466092Y-109232463D01*
X128522916Y-101794413D02*
X128522916Y-101126109D01*
X151339627Y-106838969D02*
X151339627Y-106838969D01*
X148303403Y-96766703D02*
X148303403Y-96766703D01*
X131235105Y-92451335D02*
X131235105Y-91780436D01*
X135981442Y-91480723D02*
X135981442Y-90689982D01*
X130896085Y-89706736D02*
X130896085Y-88991679D01*
X136521634Y-97615062D02*
X136521634Y-97615062D01*
X147875241Y-93768840D02*
X147875241Y-93768840D01*
X143576291Y-109417491D02*
X143781064Y-109484416D01*
X138116666Y-94159861D02*
X138568753Y-93615306D01*
X152725369Y-104382426D02*
X153024564Y-104295817D01*
X155811765Y-95910441D02*
X150268827Y-95910441D01*
X140028745Y-101031382D02*
X140028745Y-101031382D01*
X143779019Y-93643687D02*
X143779019Y-91783336D01*
X136253934Y-91753215D02*
X136253934Y-91753215D01*
X146491208Y-99548442D02*
X146491208Y-98125804D01*
X139710721Y-104250956D02*
X139710721Y-103154094D01*
X142593106Y-92832866D02*
X143218686Y-93174998D01*
X149481504Y-97327678D02*
X150205838Y-96634806D01*
X154370938Y-93800364D02*
X154426053Y-93579875D01*
X134286344Y-97470469D02*
X134286344Y-96960887D01*
X146491208Y-84149028D02*
X146491208Y-83909495D01*
X150048398Y-98303996D02*
X154048123Y-99091349D01*
X147168119Y-99140544D02*
X148568143Y-98115031D01*
X137356229Y-92194163D02*
X141167020Y-85895305D01*
X131574124Y-94630015D02*
X131574124Y-94013224D01*
X153949765Y-101857280D02*
X153949765Y-101187358D01*
X139178952Y-91607554D02*
X138248410Y-91866893D01*
X146433927Y-94294413D02*
X147469785Y-95012858D01*
X128522916Y-99044322D02*
X128522916Y-98420390D01*
X130896085Y-86395366D02*
X130896085Y-85587718D01*
X138693662Y-83909495D02*
X138693662Y-83009379D01*
X146830258Y-105224162D02*
X146830258Y-104250956D01*
X135726407Y-110035594D02*
X135726407Y-110035594D01*
X145229764Y-98839427D02*
X145229764Y-98839427D01*
X149542447Y-88290873D02*
X149542447Y-87409037D01*
X138693662Y-104350871D02*
X138693662Y-104250956D01*
X150268827Y-95910441D02*
X150205808Y-95815959D01*
X133269254Y-91297831D02*
X133269254Y-90689982D01*
X128159940Y-98492991D02*
X127963101Y-98618937D01*
X154937833Y-102130534D02*
X155055936Y-101988810D01*
X143781064Y-82934855D02*
X143560575Y-82978190D01*
X146670651Y-110067057D02*
X146835996Y-110114329D01*
X152932675Y-101435283D02*
X152932675Y-100767070D01*
X130557065Y-89479441D02*
X130557065Y-88764384D01*
X149542447Y-97269358D02*
X149542447Y-95174693D01*
X144457059Y-100502726D02*
X144457059Y-97849192D01*
X137774533Y-94785991D02*
X137774533Y-94785991D01*
X136978299Y-90493449D02*
X136568875Y-91186351D01*
X143989652Y-83060832D02*
X143781034Y-82934855D01*
X136659513Y-97969066D02*
X136659513Y-97470469D01*
X141481961Y-104350871D02*
X141481961Y-104350871D01*
X152932675Y-91672984D02*
X152932675Y-91009044D01*
X144851865Y-96225383D02*
X144851865Y-96225383D01*
X126522244Y-96540324D02*
X126522244Y-96540324D01*
X154426023Y-93579844D02*
X154426023Y-93579844D01*
X140388791Y-104250956D02*
X140388791Y-103154094D01*
X146433927Y-94294413D02*
X146433927Y-94294413D01*
X147169278Y-99139720D02*
X147169278Y-97654857D01*
X152217526Y-88599864D02*
X152217526Y-88599864D01*
X137104306Y-93611369D02*
X136768674Y-94205821D01*
X131913175Y-92732341D02*
X131913175Y-92061503D01*
X154174069Y-93926310D02*
X154370938Y-93800364D01*
X133541501Y-85174876D02*
X133541501Y-85174876D01*
X150220487Y-104250956D02*
X150220487Y-103154094D01*
X134625363Y-98736430D02*
X134625363Y-97470469D01*
X143560575Y-82978190D02*
X143560575Y-82978190D01*
X135675229Y-82395518D02*
X135675229Y-82395518D01*
X148186338Y-97470469D02*
X148186338Y-96862315D01*
X144914823Y-104382426D02*
X144914823Y-104382426D01*
X134848538Y-97437907D02*
X133419461Y-96225383D01*
X130218045Y-92029857D02*
X130218045Y-91358836D01*
X147169278Y-94804423D02*
X147169278Y-93343333D01*
X147060361Y-82537242D02*
X147060361Y-82537242D01*
X151560086Y-106933452D02*
X151780576Y-106838969D01*
X146152188Y-108960124D02*
X146152188Y-107352122D01*
X144217404Y-94173716D02*
X144559537Y-94799296D01*
X135372129Y-93233439D02*
X135120145Y-93390910D01*
X133608274Y-91525157D02*
X133608274Y-90810069D01*
X131235105Y-98506205D02*
X131235105Y-97877940D01*
X140820584Y-84257640D02*
X140631650Y-84446574D01*
X148186338Y-86247538D02*
X148186338Y-85176371D01*
X135277616Y-82808909D02*
X135277616Y-82808909D01*
X150898557Y-86934794D02*
X150898557Y-86052928D01*
X148864377Y-104250956D02*
X148864377Y-103154094D01*
X133947293Y-97470469D02*
X133947293Y-96673259D01*
X135435086Y-110051402D02*
X135561063Y-110082835D01*
X136320493Y-96274058D02*
X136320493Y-96177592D01*
X143399655Y-100825511D02*
X143399655Y-100825511D01*
X128222928Y-99091349D02*
X128285916Y-99091349D01*
X142489774Y-104350871D02*
X143466092Y-109232463D01*
X135273679Y-82568736D02*
X135273679Y-82568736D01*
X154288785Y-96540324D02*
X154288785Y-95910441D01*
X139032681Y-104250956D02*
X139032681Y-103154094D01*
X146830258Y-88281688D02*
X146830258Y-87203959D01*
X132254209Y-98303996D02*
X132254209Y-98303996D01*
X133269254Y-98934214D02*
X133269254Y-97470469D01*
X126293912Y-96453715D02*
X126522244Y-96540324D01*
X151576596Y-86256724D02*
X151576596Y-85524455D01*
X138615994Y-109452922D02*
X138820706Y-109385997D01*
X134625363Y-106604869D02*
X134625363Y-105511485D01*
X144777494Y-96962413D02*
X144563962Y-97651469D01*
X134964383Y-87472575D02*
X134964383Y-86397471D01*
X148824033Y-107275950D02*
X148824033Y-107275950D01*
X141639463Y-84415080D02*
X141450467Y-84226146D01*
X146269101Y-104382426D02*
X148284726Y-107405894D01*
X145474149Y-104382426D02*
X145474149Y-104250956D01*
X140907193Y-81352275D02*
X140907193Y-81352275D01*
X135981442Y-104570720D02*
X135981442Y-104250956D01*
X149481504Y-97327678D02*
X149481504Y-97327678D01*
X136659513Y-86162486D02*
X136659513Y-84540782D01*
X150220487Y-100840556D02*
X150220487Y-98585612D01*
X129907865Y-88946299D02*
X130049588Y-89139201D01*
X138143582Y-104350871D02*
X138143582Y-104350871D01*
X139710721Y-105302134D02*
X139710721Y-104250956D01*
X138354642Y-100642863D02*
X138354642Y-98589854D01*
X155055936Y-101988810D02*
X155055936Y-101988810D01*
X127750516Y-102114879D02*
X130710965Y-100886577D01*
X138354642Y-90543895D02*
X138354642Y-88192210D01*
X148883084Y-104382426D02*
X148883084Y-104382426D01*
X142761960Y-88531566D02*
X142761960Y-86235392D01*
X152254636Y-104382426D02*
X152254636Y-104250956D01*
X135435117Y-82399455D02*
X135273679Y-82568736D01*
X131913175Y-104350932D02*
X131913175Y-104250956D01*
X148398862Y-107504283D02*
X148536649Y-107531840D01*
X130218045Y-101091105D02*
X130218045Y-100428111D01*
X132254209Y-98303996D02*
X131246366Y-100004680D01*
X131235105Y-89934062D02*
X131235105Y-89218974D01*
X126488767Y-96527629D02*
X126488767Y-95923838D01*
X141167020Y-111185099D02*
X141167020Y-111185099D01*
X154174069Y-93926280D02*
X154370908Y-93800364D01*
X133541501Y-85174876D02*
X133576932Y-85391398D01*
X130710965Y-103154094D02*
X133765897Y-98115031D01*
X147508298Y-87264628D02*
X147508298Y-86190165D01*
X139727628Y-99622325D02*
X139101499Y-99284068D01*
X132591214Y-90843242D02*
X132591214Y-90689982D01*
X127939481Y-93611369D02*
X127939481Y-93611369D01*
X134625363Y-86964030D02*
X134625363Y-85890574D01*
X142169919Y-91436808D02*
X141167020Y-91375285D01*
X152000974Y-88635295D02*
X146458005Y-92320109D01*
X153271726Y-94105632D02*
X153271726Y-93488566D01*
X136998532Y-98653483D02*
X136998532Y-97470469D01*
X150559506Y-90316813D02*
X150559506Y-89593547D01*
X150268827Y-95910441D02*
X150205838Y-95815959D01*
X148525357Y-98146342D02*
X148525357Y-97470469D01*
X151780576Y-106838969D02*
X151875028Y-106618510D01*
X146433927Y-94294413D02*
X147469785Y-95012858D01*
X139101499Y-99284068D02*
X138556943Y-98835460D01*
X147168119Y-99140544D02*
X147168119Y-99140544D01*
X140150846Y-91436808D02*
X139178952Y-91607554D01*
X135592557Y-92855510D02*
X135592557Y-92855510D01*
X149542447Y-90998698D02*
X149542447Y-90689982D01*
X154382718Y-98618937D02*
X154174100Y-98492991D01*
X141481961Y-110870158D02*
X141481961Y-104350871D01*
X142489774Y-104350871D02*
X142489774Y-104350871D01*
X149638944Y-97579631D02*
X149481504Y-97327678D01*
X155811765Y-95910441D02*
X155811765Y-95910441D01*
X131574124Y-96540324D02*
X131574124Y-95910441D01*
X129671659Y-104350932D02*
X132632108Y-104350932D01*
X130557065Y-104250956D02*
X130557065Y-101141002D01*
X143232541Y-99275767D02*
X143232541Y-99275767D01*
X155024442Y-90461985D02*
X154855161Y-90300547D01*
X143781064Y-109484416D02*
X143844052Y-109484416D01*
X137676572Y-90689982D02*
X137676572Y-89367778D01*
X132930234Y-91070536D02*
X132930234Y-90689982D01*
X133608274Y-89107554D02*
X133608274Y-88225749D01*
X153949765Y-90689982D02*
X153949765Y-90583110D01*
X143440000Y-100813243D02*
X143440000Y-99103526D01*
X151339597Y-85611857D02*
X151339597Y-85611857D01*
X153229306Y-104067515D02*
X153300138Y-103768290D01*
X135981442Y-83909495D02*
X135981442Y-82890269D01*
X149203427Y-93218425D02*
X149203427Y-92570903D01*
X129907865Y-88946299D02*
X129907865Y-88946299D01*
X135303403Y-99210032D02*
X135303403Y-97752818D01*
X138930936Y-109200969D02*
X139907285Y-104319377D01*
X151623075Y-103154094D02*
X130710965Y-103154094D01*
X145812406Y-97603251D02*
X145964963Y-96926127D01*
X149203427Y-97470469D02*
X149203427Y-94297465D01*
X131246366Y-100004680D02*
X127498563Y-101547892D01*
X134964383Y-94932658D02*
X134964383Y-93326335D01*
X138867978Y-83218303D02*
X138742002Y-83021464D01*
X156055875Y-95997050D02*
X156055875Y-95997050D01*
X146447202Y-98156382D02*
X145229764Y-98839427D01*
X128285916Y-99091349D02*
X132254209Y-98303996D01*
X154772489Y-102177775D02*
X154772489Y-102177775D01*
X141395352Y-111098491D02*
X141395352Y-111098491D01*
X149481504Y-97327678D02*
X150205838Y-96634806D01*
X148525357Y-104250956D02*
X148525357Y-103154094D01*
X129879025Y-101231761D02*
X129879025Y-100567729D01*
X143100980Y-100882029D02*
X143100980Y-99347667D01*
X139032681Y-89423137D02*
X139032681Y-84033671D01*
X147508298Y-104382426D02*
X147508298Y-104250956D01*
X135592557Y-92855510D02*
X135372129Y-93233439D01*
X140028745Y-101031382D02*
X141167020Y-101106974D01*
X148536649Y-107531840D02*
X148694150Y-107468852D01*
X133419461Y-96225383D02*
X133419461Y-96225383D01*
X141744870Y-101069255D02*
X141744870Y-99851603D01*
X136568875Y-91186351D02*
X136568875Y-91186351D01*
X139032681Y-100839946D02*
X139032681Y-99227366D01*
X141066831Y-83909495D02*
X141066831Y-81291728D01*
X143399655Y-100825480D02*
X144441617Y-100509074D01*
X139371701Y-93028056D02*
X139371701Y-91573680D01*
X133608274Y-97470469D02*
X133608274Y-96385600D01*
X144851865Y-96225383D02*
X144851865Y-96225383D01*
X151237577Y-96540324D02*
X151237577Y-95910441D01*
X147875241Y-93768840D02*
X154866941Y-90871379D01*
X127750516Y-102114879D02*
X130710965Y-100886577D01*
X149881467Y-90689982D02*
X149881467Y-90044291D01*
X147508298Y-97470469D02*
X147508298Y-97416118D01*
X147847318Y-97470469D02*
X147847318Y-97139201D01*
X135273679Y-109882121D02*
X135435086Y-110051402D01*
X146830258Y-104250956D02*
X146830258Y-103154094D01*
X142422910Y-104250956D02*
X142422910Y-103154094D01*
X137104306Y-98839427D02*
X135886350Y-98156382D01*
X128285916Y-93359416D02*
X128065457Y-93402751D01*
X146835996Y-110114329D02*
X146835996Y-110114329D01*
X148303403Y-96766703D02*
X147481595Y-97437907D01*
X151237577Y-98538066D02*
X151237577Y-97901591D01*
X151237577Y-92375468D02*
X151237577Y-91718974D01*
X131025907Y-85643351D02*
X130805448Y-85548869D01*
X135886350Y-98156382D02*
X134848538Y-97437907D01*
X154646512Y-102146342D02*
X154646512Y-102146342D01*
X147508298Y-104250956D02*
X147508298Y-103154094D01*
X138301053Y-109106486D02*
X138344388Y-109326945D01*
X148864377Y-97470469D02*
X148864377Y-96242839D01*
X129200955Y-104070994D02*
X129200955Y-103382762D01*
X148525357Y-89307933D02*
X148525357Y-88426127D01*
X144796109Y-97470469D02*
X144796109Y-96777934D01*
X149881467Y-92937449D02*
X149881467Y-92286906D01*
X132884061Y-97327678D02*
X132726590Y-97579631D01*
X137324735Y-89926555D02*
X137324735Y-89926555D01*
X154627805Y-90970500D02*
X154627805Y-90689982D01*
X130148007Y-88588054D02*
X129955106Y-88729777D01*
X146830258Y-94569285D02*
X146830258Y-92953685D01*
X145474149Y-97470469D02*
X145474149Y-94041026D01*
X150898557Y-94577220D02*
X150898557Y-93960429D01*
X151780576Y-106838969D02*
X151875028Y-106618510D01*
X130616483Y-106366557D02*
X130522031Y-106587016D01*
X127963101Y-98618937D02*
X127907987Y-98839427D01*
X154288785Y-93852916D02*
X154288785Y-93380229D01*
X133671414Y-94430217D02*
X133671414Y-94430217D01*
X144977811Y-92194163D02*
X144081204Y-91866893D01*
X127166806Y-96540324D02*
X127166806Y-95910441D01*
X150559506Y-87273814D02*
X150559506Y-86391978D01*
X131913175Y-104250956D02*
X131913175Y-103154094D01*
X144032987Y-83281291D02*
X143989652Y-83060832D01*
X154855161Y-90300547D02*
X154615018Y-90304484D01*
X146961972Y-110082896D02*
X147123380Y-109913615D01*
X140388791Y-92627696D02*
X140388791Y-91422404D01*
X138108335Y-98290904D02*
X137770108Y-97664775D01*
X131025907Y-85643351D02*
X131025907Y-85643351D01*
X138820706Y-109385997D02*
X138930936Y-109200969D01*
X130218045Y-104250956D02*
X130218045Y-101701426D01*
X144441617Y-100509074D02*
X145422666Y-100107035D01*
X139245877Y-104350871D02*
X138301053Y-109106486D01*
X136369077Y-95524638D02*
X136316922Y-96225383D01*
X134848538Y-97437907D02*
X134848538Y-97437907D01*
X151915616Y-96540324D02*
X151915616Y-95910441D01*
X142761960Y-104250956D02*
X142761960Y-103154094D01*
X141744870Y-104250956D02*
X141744870Y-103154094D01*
X130585019Y-86084269D02*
X136253934Y-91753215D01*
X154315854Y-99024424D02*
X154426053Y-98839427D01*
X141481961Y-104350871D02*
X142489774Y-104350871D01*
X138521543Y-82966349D02*
X138521543Y-82966349D01*
X130585019Y-86084269D02*
X136253934Y-91753215D01*
X133947293Y-107456889D02*
X133947293Y-106522624D01*
X133576932Y-85391398D02*
X133576932Y-85391398D01*
X152254636Y-89180308D02*
X152254636Y-88624858D01*
X132930234Y-104934642D02*
X132930234Y-104250956D01*
X137860135Y-89076243D02*
X137324735Y-89926555D01*
X126293912Y-96453715D02*
X126522244Y-96540324D01*
X148186338Y-104382426D02*
X148186338Y-104250956D01*
X129200955Y-91608378D02*
X129200955Y-90937236D01*
X148824033Y-107275950D02*
X148788602Y-107059428D01*
X152254636Y-98738292D02*
X152254636Y-98106425D01*
X148284726Y-107405894D02*
X148398862Y-107504283D01*
X150220487Y-90544108D02*
X150220487Y-89818919D01*
X129539975Y-96540324D02*
X129539975Y-95910441D01*
X133269254Y-88768535D02*
X133269254Y-87886699D01*
X144776181Y-95488353D02*
X144851865Y-96225383D01*
X147123380Y-109913615D02*
X147119412Y-109673472D01*
X135303403Y-82871501D02*
X135303403Y-82537577D01*
X131913175Y-101171092D02*
X131913175Y-98879496D01*
X141405850Y-83909495D02*
X141405850Y-81469035D01*
X142489774Y-104350871D02*
X143466092Y-109232463D01*
X134286344Y-86455516D02*
X134286344Y-85383677D01*
X150220487Y-96620158D02*
X150220487Y-95837962D01*
X144457059Y-104873240D02*
X144457059Y-104250956D01*
X139710721Y-100970256D02*
X139710721Y-99613200D01*
X148525357Y-91680613D02*
X148525357Y-90945781D01*
X138742002Y-83021464D02*
X138521543Y-82966349D01*
X144118039Y-94053569D02*
X144118039Y-91880351D01*
X133269254Y-93294322D02*
X133269254Y-92623668D01*
X131574124Y-87073405D02*
X131574124Y-86191569D01*
X137104306Y-93611369D02*
X137104306Y-93611369D01*
X143434598Y-83186839D02*
X143434598Y-83186839D01*
X156059812Y-96453715D02*
X156158231Y-96225383D01*
X135372129Y-93233439D02*
X135120145Y-93390910D01*
X153271726Y-96540324D02*
X153271726Y-95910441D01*
X138015592Y-94344798D02*
X138015592Y-91952281D01*
X141639463Y-84415080D02*
X141450467Y-84226146D01*
X145135129Y-104382426D02*
X145135129Y-104250956D01*
X126522244Y-95910441D02*
X126522244Y-95910441D01*
X136253934Y-91753215D02*
X135907498Y-92351603D01*
X135642423Y-105079264D02*
X135642423Y-104250956D01*
X143765286Y-93627116D02*
X143765286Y-93627116D01*
X147508298Y-104250956D02*
X147508298Y-103154094D01*
X146772946Y-92855510D02*
X146772946Y-92855510D01*
X152410398Y-88729777D02*
X152217526Y-88599864D01*
X131025907Y-85643351D02*
X130805448Y-85548869D01*
X129907865Y-88946299D02*
X130049588Y-89139201D01*
X134080838Y-85076457D02*
X134080838Y-85076457D01*
X149638944Y-97579631D02*
X149638944Y-97579631D01*
X138238065Y-88383372D02*
X135844510Y-82556926D01*
X153610745Y-99005229D02*
X153610745Y-98379527D01*
X136320493Y-85339763D02*
X136320493Y-83909495D01*
X147508298Y-95044017D02*
X147508298Y-93280803D01*
X130364530Y-88635295D02*
X130148007Y-88588054D01*
X128183896Y-91186869D02*
X128183896Y-90689982D01*
X152725369Y-104382426D02*
X152725369Y-104382426D01*
X141066831Y-111031443D02*
X141066831Y-104250956D01*
X144563962Y-97651469D02*
X144225705Y-98277049D01*
X151686063Y-100918071D02*
X154646512Y-102146342D01*
X130896085Y-104350932D02*
X130896085Y-104250956D01*
X138324674Y-83092296D02*
X138269559Y-83312785D01*
X154370908Y-93800364D02*
X154370908Y-93800364D01*
X144457059Y-91333415D02*
X144457059Y-90689982D01*
X133947293Y-85946971D02*
X133947293Y-84986522D01*
X131235105Y-106629771D02*
X131235105Y-105747935D01*
X135303403Y-104350932D02*
X135303403Y-104250956D01*
X134286344Y-104250956D02*
X134286344Y-103154094D01*
X143151181Y-104382365D02*
X144253476Y-104382365D01*
X147245389Y-93390910D02*
X147245389Y-93390910D01*
X143440000Y-89652293D02*
X143440000Y-87327708D01*
X133671445Y-84981974D02*
X133541501Y-85174876D01*
X151339627Y-106838969D02*
X151560086Y-106933452D01*
X150220487Y-104382426D02*
X150220487Y-104250956D01*
X143576291Y-109417491D02*
X143781064Y-109484416D01*
X132632108Y-104350932D02*
X130616483Y-106366587D01*
X138354642Y-109333140D02*
X138354642Y-108836833D01*
X143466092Y-109232463D02*
X143576291Y-109417491D01*
X143844052Y-109484416D02*
X144040891Y-109358470D01*
X151087705Y-100004680D02*
X150048398Y-98303996D01*
X137892423Y-100500773D02*
X138934384Y-100821055D01*
X152932675Y-96540324D02*
X152932675Y-95910441D01*
X132065213Y-96540324D02*
X132159696Y-96634806D01*
X131235105Y-104350932D02*
X131235105Y-104250956D01*
X152410398Y-88729777D02*
X152410398Y-88729777D01*
X146152188Y-94134593D02*
X146152188Y-91791880D01*
X153300138Y-103768290D02*
X153229306Y-103469096D01*
X139371701Y-100905101D02*
X139371701Y-99430034D01*
X138820706Y-109385997D02*
X138820706Y-109385997D01*
X134625363Y-95202220D02*
X134625363Y-93185801D01*
X142305295Y-101032664D02*
X143399655Y-100825511D01*
X127907987Y-98839427D02*
X128018186Y-99024424D01*
X134964383Y-92434337D02*
X134964383Y-91719279D01*
X133608274Y-96065165D02*
X133608274Y-94417674D01*
X153229306Y-104067515D02*
X153229306Y-104067515D01*
X150220487Y-105719828D02*
X150220487Y-104837993D01*
X144040891Y-109358470D02*
X144096005Y-109137980D01*
X144563962Y-97651469D02*
X144563962Y-97651469D01*
X135403592Y-104350932D02*
X135403592Y-104350932D01*
X135303403Y-90802684D02*
X135303403Y-90689982D01*
X133765897Y-98115031D02*
X133765897Y-98115031D01*
X151576596Y-106926402D02*
X151576596Y-106194072D01*
X135642423Y-99414103D02*
X135642423Y-97987498D01*
X146152188Y-99735698D02*
X146152188Y-98321879D01*
X144776181Y-95488353D02*
X144851865Y-96225383D01*
X150220487Y-98337870D02*
X150220487Y-97696757D01*
X152254636Y-104250956D02*
X152254636Y-101857951D01*
X133860379Y-107500346D02*
X133860379Y-107500346D01*
X141904050Y-92616221D02*
X141904050Y-92616221D01*
X131913175Y-96540324D02*
X131913175Y-95910441D01*
X146152188Y-91681102D02*
X146152188Y-90799296D01*
X144118039Y-90773051D02*
X144118039Y-90689982D01*
X144851865Y-96225383D02*
X144777494Y-96962413D01*
X138568753Y-93615306D02*
X139115354Y-93166697D01*
X127510373Y-90332042D02*
X127510373Y-90332042D01*
X129879025Y-98775248D02*
X129879025Y-98149180D01*
X153610745Y-101716594D02*
X153610745Y-101047252D01*
X130616483Y-106807475D02*
X130616483Y-106807475D01*
X146111569Y-91721721D02*
X146111569Y-91721721D01*
X140631650Y-84446574D02*
X139497830Y-86336253D01*
X146458035Y-92320109D02*
X146111569Y-91721721D01*
X151560086Y-85517375D02*
X151339597Y-85611857D01*
X151237577Y-86595775D02*
X151237577Y-85713908D01*
X129671659Y-104350932D02*
X132632108Y-104350932D01*
X141395352Y-111098491D02*
X141481961Y-110870158D01*
X135981442Y-109563670D02*
X135981442Y-107952708D01*
X147847318Y-95318461D02*
X147847318Y-93138835D01*
X129539975Y-98842509D02*
X129539975Y-98216960D01*
X147169278Y-104382426D02*
X147169278Y-104250956D01*
X132159696Y-95847453D02*
X132065213Y-95910441D01*
X130710965Y-100886577D02*
X130710965Y-100886577D01*
X138568753Y-93615306D02*
X138568753Y-93615306D01*
X144118039Y-104382365D02*
X144118039Y-104250956D01*
X150220487Y-87612834D02*
X150220487Y-86730998D01*
X139740933Y-92828441D02*
X139740933Y-92828441D01*
X127459195Y-102099040D02*
X127624539Y-102146281D01*
X135403592Y-104350932D02*
X133608457Y-107027934D01*
X133608457Y-107027934D02*
X133561185Y-107244456D01*
X130148007Y-88588054D02*
X130148007Y-88588054D01*
X140820584Y-84257640D02*
X140820584Y-84257640D01*
X144096005Y-109137980D02*
X143151181Y-104382365D01*
X128222928Y-99091349D02*
X128285916Y-99091349D01*
X136521634Y-94847514D02*
X136369077Y-95524638D01*
X145474149Y-86617289D02*
X145474149Y-84964946D01*
X138553006Y-109452922D02*
X138615994Y-109452922D01*
X138556943Y-98835460D02*
X138108335Y-98290904D01*
X154048123Y-99091319D02*
X154048123Y-99091319D01*
X150205838Y-96634806D02*
X150300321Y-96540324D01*
X138354642Y-104350871D02*
X138354642Y-104250956D01*
X145565366Y-94201396D02*
X145565366Y-94201396D01*
X130896085Y-104250956D02*
X130896085Y-103154094D01*
X132591214Y-100052653D02*
X132591214Y-97606730D01*
X145964963Y-96926127D02*
X146017118Y-96225383D01*
X148788602Y-107059428D02*
X146993436Y-104382426D01*
X138934384Y-100821055D02*
X140028745Y-101031382D01*
X136320493Y-83909495D02*
X136320493Y-83715525D01*
X145229764Y-98839427D02*
X145229764Y-98839427D01*
X136316922Y-96225383D02*
X136316922Y-96225383D01*
X140938687Y-111086680D02*
X140938687Y-111086680D01*
X141066831Y-111031443D02*
X141066831Y-104250956D01*
X140631650Y-84446574D02*
X139497830Y-86336253D01*
X154079618Y-93327922D02*
X154079618Y-93327922D01*
X139907285Y-104319377D02*
X139907285Y-104319377D01*
X133608274Y-93434825D02*
X133608274Y-92764201D01*
X149203427Y-91225993D02*
X149203427Y-90689982D01*
X134848538Y-95012858D02*
X135886350Y-94294413D01*
X138108335Y-98290904D02*
X138108335Y-98290904D01*
X141450467Y-84226146D02*
X141450467Y-81580607D01*
X138693662Y-93512797D02*
X138693662Y-91742808D01*
X154646512Y-102146342D02*
X154772489Y-102177775D01*
X138248410Y-91866893D02*
X138248410Y-91866893D01*
X131574124Y-101730296D02*
X131574124Y-99451609D01*
X136659513Y-107928935D02*
X136659513Y-106325419D01*
X135844510Y-109893840D02*
X135844510Y-109893840D01*
X148186338Y-91907908D02*
X148186338Y-91171183D01*
X144473905Y-89044719D02*
X147056424Y-82777415D01*
X131057401Y-106807475D02*
X131057401Y-106807475D01*
X141066831Y-111141917D02*
X141066831Y-111031443D01*
X138930936Y-109200969D02*
X138930936Y-109200969D01*
X137770108Y-97664775D02*
X137556607Y-96971446D01*
X145474149Y-107325358D02*
X145474149Y-105724803D01*
X130710965Y-100886577D02*
X129167752Y-103437632D01*
X132252194Y-94764750D02*
X132252194Y-94148021D01*
X148757108Y-85391398D02*
X148804349Y-85174876D01*
X146552548Y-109925334D02*
X146552548Y-109925334D01*
X132632108Y-104350932D02*
X130616483Y-106366557D01*
X127750516Y-102114879D02*
X127750516Y-102114879D01*
X140727811Y-86621287D02*
X140727811Y-84350413D01*
X145355741Y-90493449D02*
X145355741Y-90493449D01*
X135303403Y-87981120D02*
X135303403Y-86904368D01*
X134080838Y-85076457D02*
X133887937Y-84946544D01*
X127907987Y-98839427D02*
X128018186Y-99024424D01*
X148398892Y-107504283D02*
X148536649Y-107531840D01*
X140852078Y-110870158D02*
X140852078Y-110870158D01*
X142422910Y-87971171D02*
X142422910Y-85685588D01*
X149764920Y-104382426D02*
X152725369Y-104382426D01*
X152593656Y-91813456D02*
X152593656Y-91151042D01*
X151780545Y-86052775D02*
X151875028Y-85832316D01*
X148864377Y-91453288D02*
X148864377Y-90720408D01*
X133887937Y-84946544D02*
X133887937Y-84946544D01*
X145765134Y-91186351D02*
X145765134Y-91186351D01*
X155059873Y-101748668D02*
X154898465Y-101579387D01*
X141167020Y-92540538D02*
X141904050Y-92616221D01*
X136768674Y-94205821D02*
X136768674Y-94205821D01*
X143765286Y-93627116D02*
X144217404Y-94173716D01*
X152217526Y-88599864D02*
X152001004Y-88635295D01*
X144217404Y-94173716D02*
X144559537Y-94799296D01*
X148864377Y-93358928D02*
X148864377Y-92712870D01*
X154966825Y-96540324D02*
X154966825Y-95910441D01*
X146491208Y-90689982D02*
X146491208Y-90460276D01*
X144914823Y-104382426D02*
X146269101Y-104382426D01*
X139727628Y-99622325D02*
X139101499Y-99284068D01*
X153024564Y-104295817D02*
X153024564Y-104295817D01*
X155843289Y-96540324D02*
X156059842Y-96453715D01*
X135372129Y-93233439D02*
X135372129Y-93233439D01*
X129167752Y-104035991D02*
X129384275Y-104264323D01*
X140852078Y-110870158D02*
X140938687Y-111086680D01*
X142422910Y-101010417D02*
X142422910Y-99675242D01*
X141167020Y-101106974D02*
X141167020Y-101106974D01*
X144253476Y-104382365D02*
X146552548Y-109925334D01*
X143560575Y-82978190D02*
X143434598Y-83186839D01*
X136316922Y-96225383D02*
X136369077Y-96939402D01*
X146830258Y-99344157D02*
X146830258Y-97890330D01*
X128018186Y-99024424D02*
X128222928Y-99091349D01*
X132930234Y-88429515D02*
X132930234Y-87547679D01*
X131913175Y-98371653D02*
X131913175Y-97742320D01*
X135561063Y-110082835D02*
X135726407Y-110035594D01*
X138248410Y-91866893D02*
X137356229Y-92194163D01*
X146670651Y-110067057D02*
X146670651Y-110067057D01*
X147169278Y-104250956D02*
X147169278Y-103154094D01*
X127963101Y-98618937D02*
X127963101Y-98618937D01*
X146830258Y-83326274D02*
X146830258Y-82366832D01*
X130616483Y-106807475D02*
X130836972Y-106901988D01*
X133947293Y-95777507D02*
X133947293Y-94217997D01*
X149203427Y-104702739D02*
X149203427Y-104250956D01*
X148883084Y-96225383D02*
X148303403Y-96766703D01*
X154174069Y-93926280D02*
X154174069Y-93926280D01*
X147508298Y-90325023D02*
X147508298Y-89443187D01*
X139907285Y-104319377D02*
X140852078Y-104319377D01*
X152000974Y-88635295D02*
X152000974Y-88635295D01*
X135303403Y-90689982D02*
X135303403Y-89920848D01*
X149881467Y-100281352D02*
X149881467Y-97628489D01*
X143989652Y-83060832D02*
X143989652Y-83060832D01*
X136998532Y-86985240D02*
X136998532Y-85366038D01*
X137337552Y-100271403D02*
X137337552Y-97470469D01*
X135726407Y-110035594D02*
X135844510Y-109893840D01*
X151576596Y-98604808D02*
X151576596Y-97969859D01*
X153229306Y-103469096D02*
X151686063Y-100918071D01*
X147508298Y-98891368D02*
X147508298Y-97470469D01*
X140820584Y-81580607D02*
X140820584Y-84257640D01*
X148883084Y-96225383D02*
X148883084Y-96225383D01*
X140852078Y-110870158D02*
X140938687Y-111086680D01*
X136659513Y-93860820D02*
X136659513Y-91032969D01*
X134625363Y-92207042D02*
X134625363Y-91491984D01*
X135675229Y-82395518D02*
X135435117Y-82399455D01*
X145813169Y-85794535D02*
X145813169Y-84150401D01*
X137557889Y-95479289D02*
X137557889Y-95479289D01*
X133702909Y-107437358D02*
X133860379Y-107500346D01*
X141066831Y-104250956D02*
X141066831Y-103154094D01*
X144096005Y-109137980D02*
X144096005Y-109137980D01*
X141481961Y-110870158D02*
X141481961Y-104350871D01*
X134625363Y-90124644D02*
X134625363Y-89242808D01*
X127982846Y-93831828D02*
X128191434Y-93957835D01*
X156059842Y-96453715D02*
X156158231Y-96225383D01*
X136768674Y-98249369D02*
X137104306Y-98839427D01*
X147168119Y-99140544D02*
X148568143Y-98115031D01*
X132930234Y-99493419D02*
X132930234Y-97470469D01*
X142083890Y-104350871D02*
X142083890Y-104250956D01*
X135907498Y-92351603D02*
X130364530Y-88635295D01*
X141913114Y-99834544D02*
X141913114Y-99834544D01*
X130616483Y-106366557D02*
X130616483Y-106366557D01*
X143779019Y-83909495D02*
X143779019Y-82935252D01*
X150559506Y-94644572D02*
X150559506Y-94027842D01*
X130148007Y-88588054D02*
X129955106Y-88729777D01*
X152254636Y-101153972D02*
X152254636Y-100486888D01*
X148253171Y-85076457D02*
X145009275Y-89926555D01*
X141744870Y-104350871D02*
X141744870Y-104250956D01*
X149638944Y-97579631D02*
X149481504Y-97327678D01*
X152254636Y-91953959D02*
X152254636Y-91293010D01*
X155811795Y-95910441D02*
X155811765Y-95910441D01*
X148253171Y-85076457D02*
X148253171Y-85076457D01*
X151875028Y-106618510D02*
X151780576Y-106398051D01*
X133947293Y-98246196D02*
X133947293Y-97470469D01*
X151576596Y-92234965D02*
X151576596Y-91577006D01*
X142606412Y-99617900D02*
X142606412Y-99617900D01*
X132726590Y-97579631D02*
X128159940Y-98492991D01*
X131235105Y-104250956D02*
X131235105Y-103154094D01*
X129539975Y-91748881D02*
X129539975Y-91077769D01*
X152445859Y-88946299D02*
X152410398Y-88729777D01*
X150898557Y-90089518D02*
X150898557Y-89368174D01*
X148694150Y-107468852D02*
X148824033Y-107275950D01*
X127498563Y-101547892D02*
X127498563Y-101547892D01*
X147469785Y-95012858D02*
X148298978Y-95684062D01*
X151780576Y-106398051D02*
X151780576Y-106398051D01*
X132930234Y-97470469D02*
X132930234Y-95102610D01*
X135165921Y-99127269D02*
X135999723Y-99629130D01*
X150220487Y-94711955D02*
X150220487Y-94095256D01*
X143779019Y-104382365D02*
X143779019Y-104250956D01*
X155843289Y-96540324D02*
X155843289Y-96540324D01*
X129200955Y-101513072D02*
X129200955Y-100846904D01*
X145964963Y-95511363D02*
X145812406Y-94835704D01*
X146898953Y-82367961D02*
X146658811Y-82364024D01*
X153949765Y-91251475D02*
X153949765Y-90689982D01*
X148662625Y-84981974D02*
X148446103Y-84934733D01*
X146993436Y-93233439D02*
X146772977Y-92855510D01*
X127341123Y-90493449D02*
X127337155Y-90733592D01*
X133419461Y-96225383D02*
X133419461Y-96225383D01*
X151780545Y-86052775D02*
X151875028Y-85832316D01*
X130490506Y-85863810D02*
X130490506Y-85863810D01*
X136521634Y-97615062D02*
X136768674Y-98249369D01*
X148662625Y-84981974D02*
X148662625Y-84981974D01*
X143232541Y-99275767D02*
X142606412Y-99617900D01*
X140388791Y-104319377D02*
X140388791Y-104250956D01*
X127844876Y-91046397D02*
X127844876Y-90689982D01*
X137337552Y-104350932D02*
X137337552Y-104250956D01*
X137770108Y-97664775D02*
X137556607Y-96971446D01*
X138615994Y-109452922D02*
X138615994Y-109452922D01*
X142169919Y-91436808D02*
X141167020Y-91375285D01*
X138693662Y-109427562D02*
X138693662Y-107130412D01*
X130836972Y-106901988D02*
X130836972Y-106901988D01*
X154855161Y-90300547D02*
X154855161Y-90300547D01*
X146491208Y-83909495D02*
X146491208Y-82523814D01*
X138930936Y-109200969D02*
X139907285Y-104319377D01*
X136127957Y-104350932D02*
X137482205Y-104350932D01*
X131235105Y-102289531D02*
X131235105Y-100009349D01*
X143100980Y-107406840D02*
X143100980Y-104250956D01*
X137337552Y-97470469D02*
X137337552Y-90689982D01*
X134625363Y-104250956D02*
X134625363Y-103154094D01*
X153949765Y-99071971D02*
X153949765Y-98447795D01*
X148298978Y-95684062D02*
X148298978Y-95684062D01*
X148525357Y-97470469D02*
X148525357Y-96559428D01*
X135886350Y-94294413D02*
X135886350Y-94294413D01*
X140820584Y-81580607D02*
X140820584Y-84257640D01*
X133947293Y-104350932D02*
X133947293Y-104250956D01*
X147508298Y-106241252D02*
X147508298Y-105150187D01*
X129671659Y-104350932D02*
X129671659Y-104350932D01*
X133269254Y-90689982D02*
X133269254Y-90582774D01*
X143844052Y-109484416D02*
X143844052Y-109484416D01*
X134625363Y-95202220D02*
X134625363Y-93185801D01*
X153949765Y-101857280D02*
X153949765Y-101187358D01*
X134286344Y-91979747D02*
X134286344Y-91264689D01*
X126305722Y-95997050D02*
X126207303Y-96225383D01*
X139371701Y-104250956D02*
X139371701Y-103154094D01*
X128065457Y-93402751D02*
X127939481Y-93611369D01*
X135435117Y-82399455D02*
X135273679Y-82568736D01*
X136320493Y-108746318D02*
X136320493Y-107139079D01*
X127939481Y-93611369D02*
X127982846Y-93831828D01*
X131913175Y-94697368D02*
X131913175Y-94080638D01*
X135907498Y-92351603D02*
X130364530Y-88635295D01*
X154966825Y-102095744D02*
X154966825Y-101651103D01*
X138553006Y-109452922D02*
X138615994Y-109452922D01*
X140388791Y-87181651D02*
X140388791Y-84851329D01*
X148568143Y-98115031D02*
X148568143Y-98115031D01*
X150048398Y-98303996D02*
X150048398Y-98303996D01*
X148525357Y-107529582D02*
X148525357Y-106666880D01*
X145135129Y-90689982D02*
X145135129Y-89738414D01*
X141167020Y-99910197D02*
X140420926Y-99835856D01*
X130490506Y-85863810D02*
X130585019Y-86084269D01*
X146489499Y-82525431D02*
X144064450Y-88351848D01*
X149203427Y-88629893D02*
X149203427Y-87748057D01*
X133608457Y-107027934D02*
X133561185Y-107244456D01*
X128222928Y-99091349D02*
X128222928Y-99091349D01*
X135726407Y-110035594D02*
X135844510Y-109893840D01*
X137337552Y-104250956D02*
X137337552Y-103154094D01*
X151915616Y-104250956D02*
X151915616Y-101297526D01*
X129539975Y-94225779D02*
X129539975Y-93608775D01*
X138238065Y-88383372D02*
X135844510Y-82556926D01*
X139178952Y-91607554D02*
X138248410Y-91866893D01*
X144118039Y-90689982D02*
X144118039Y-88223094D01*
X129384275Y-104264323D02*
X129671659Y-104350932D01*
X133947293Y-104250956D02*
X133947293Y-103154094D01*
X129539975Y-104311259D02*
X129539975Y-104250956D01*
X146489499Y-82525431D02*
X144064450Y-88351817D01*
X136659513Y-90015269D02*
X136659513Y-88931926D01*
X148568143Y-98115031D02*
X151623075Y-103154094D01*
X153949765Y-91251475D02*
X153949765Y-90689982D01*
X154174100Y-98492961D02*
X154174100Y-98492961D01*
X148284726Y-107405894D02*
X148398892Y-107504283D01*
X135886350Y-98156382D02*
X135886350Y-98156382D01*
X135120145Y-93390910D02*
X135120145Y-93390910D01*
X139497830Y-86336253D02*
X138867978Y-83218303D01*
X127341123Y-101957316D02*
X127459195Y-102099040D01*
X151686063Y-100918071D02*
X154646512Y-102146342D01*
X137557889Y-95479289D02*
X137774533Y-94785991D01*
X148662625Y-84981974D02*
X148446103Y-84934733D01*
X142761960Y-105711711D02*
X142761960Y-104250956D01*
X135561063Y-110082835D02*
X135726407Y-110035594D01*
X142593106Y-92832866D02*
X142593106Y-92832866D01*
X130218045Y-89252147D02*
X130218045Y-88603343D01*
X151237577Y-104250956D02*
X151237577Y-103154094D01*
X138116666Y-94159861D02*
X138116666Y-94159861D01*
X138269559Y-83312785D02*
X139025418Y-87092082D01*
X127939481Y-93611369D02*
X127982846Y-93831828D01*
X148284726Y-107405894D02*
X148284726Y-107405894D01*
X151087705Y-100004680D02*
X151087705Y-100004680D01*
X137482236Y-96225383D02*
X137557889Y-95479289D01*
X132591214Y-97047557D02*
X132591214Y-95430308D01*
X150559506Y-101399791D02*
X150559506Y-99140391D01*
X141481961Y-104350871D02*
X142489774Y-104350871D01*
X135277585Y-109641948D02*
X135273679Y-109882121D01*
X129955106Y-88729777D02*
X129907865Y-88946299D01*
X141167020Y-101106974D02*
X142305295Y-101032664D01*
X154288785Y-99033275D02*
X154288785Y-98562236D01*
X131913175Y-105951701D02*
X131913175Y-105069896D01*
X145474149Y-93750010D02*
X145474149Y-90693858D01*
X146491208Y-104715617D02*
X146491208Y-104250956D01*
X126207303Y-96225383D02*
X126293912Y-96453715D01*
X149542447Y-105041789D02*
X149542447Y-104250956D01*
X137104306Y-93611369D02*
X136768674Y-94205821D01*
X135844510Y-82556926D02*
X135844510Y-82556926D01*
X142422910Y-92779338D02*
X142422910Y-91481181D01*
X140429990Y-92614909D02*
X141167020Y-92540538D01*
X148186338Y-93639933D02*
X148186338Y-92996837D01*
X151576596Y-96540324D02*
X151576596Y-95910441D01*
X130364530Y-88635295D02*
X130364530Y-88635295D01*
X138553006Y-109452922D02*
X138553006Y-109452922D01*
X156055905Y-95997050D02*
X155811795Y-95910441D01*
X128183896Y-90689982D02*
X128183896Y-90515605D01*
X152254636Y-94307719D02*
X152254636Y-93690806D01*
X145565366Y-94201396D02*
X145229764Y-93611369D01*
X131057401Y-106807475D02*
X133513944Y-104350932D01*
X135435086Y-110051402D02*
X135435086Y-110051402D01*
X148883084Y-104382426D02*
X151339627Y-106838969D01*
X147169278Y-90664042D02*
X147169278Y-89782206D01*
X145812406Y-94835704D02*
X145565366Y-94201396D01*
X145355741Y-90493449D02*
X148757108Y-85391398D01*
X153949765Y-93970866D02*
X153949765Y-93353740D01*
X154111112Y-99091349D02*
X154315854Y-99024424D01*
X138521543Y-82966349D02*
X138324674Y-83092296D01*
X136521634Y-94847514D02*
X136369077Y-95524638D01*
X141066831Y-111141917D02*
X141066831Y-111031443D01*
X143100980Y-89091929D02*
X143100980Y-84838298D01*
X132159696Y-96634806D02*
X132884061Y-97327678D01*
X155059873Y-101748668D02*
X154898465Y-101579387D01*
X130836972Y-106901988D02*
X131057401Y-106807475D01*
X140049741Y-87742015D02*
X140049741Y-85416362D01*
X137482236Y-96225383D02*
X137557889Y-95479289D01*
X128191434Y-93957835D02*
X133104520Y-94934123D01*
X137356229Y-92194163D02*
X137356229Y-92194163D01*
X151087705Y-100004680D02*
X150048398Y-98303996D01*
X132065213Y-95910441D02*
X126522244Y-95910441D01*
X145813169Y-89807322D02*
X145813169Y-88724650D01*
X127498563Y-90902873D02*
X134490262Y-93800334D01*
X132254209Y-98303996D02*
X131246366Y-100004680D01*
X137556607Y-96971446D02*
X137482236Y-96225383D01*
X136369077Y-95524638D02*
X136369077Y-95524638D01*
X156158231Y-96225383D02*
X156158231Y-96225383D01*
X136998532Y-104350932D02*
X136998532Y-104250956D01*
X151780545Y-86052775D02*
X151780545Y-86052775D01*
X138867978Y-83218303D02*
X138867978Y-83218303D01*
X140150846Y-91436808D02*
X139178952Y-91607554D01*
X154426053Y-93579875D02*
X154300077Y-93383036D01*
X136998532Y-104250956D02*
X136998532Y-103154094D01*
X128018186Y-99024424D02*
X128018186Y-99024424D01*
X141167020Y-91375285D02*
X140150846Y-91436808D01*
X146830258Y-91003062D02*
X146830258Y-90689982D01*
X133576932Y-85391398D02*
X136978299Y-90493449D01*
X154627805Y-96540324D02*
X154627805Y-95910441D01*
X138108335Y-98290904D02*
X137770108Y-97664775D01*
X133561185Y-107244456D02*
X133702909Y-107437358D01*
X131235105Y-96540324D02*
X131235105Y-95910441D01*
X139245877Y-104350871D02*
X139245877Y-104350871D01*
X127505826Y-96540324D02*
X127505826Y-95910441D01*
X143765286Y-93627116D02*
X144217404Y-94173716D01*
X143777097Y-98823649D02*
X143232541Y-99275767D01*
X128183896Y-101935069D02*
X128183896Y-101265696D01*
X156158231Y-96225383D02*
X156055905Y-95997050D01*
X151339627Y-106838969D02*
X151560086Y-106933452D01*
X138301053Y-109106486D02*
X138301053Y-109106486D01*
X138693662Y-89983531D02*
X138693662Y-87636210D01*
X126207303Y-96225383D02*
X126207303Y-96225383D01*
X144040891Y-109358470D02*
X144096005Y-109137980D01*
X135999723Y-99629130D02*
X136911374Y-100095225D01*
X137676572Y-105476817D02*
X137676572Y-104250956D01*
X133513944Y-104350932D02*
X133513944Y-104350932D01*
X154898465Y-101579387D02*
X151087705Y-100004680D01*
X146658811Y-82364024D02*
X146658811Y-82364024D01*
X135277616Y-109641948D02*
X135273679Y-109882121D01*
X147469785Y-95012858D02*
X147469785Y-95012858D01*
X146017118Y-96225383D02*
X145964963Y-95511363D01*
X138693662Y-85433238D02*
X138693662Y-83909495D01*
X144457059Y-94611918D02*
X144457059Y-92004100D01*
X150559506Y-104382426D02*
X150559506Y-104250956D01*
X132065213Y-95910441D02*
X126522244Y-95910441D01*
X136369077Y-96939402D02*
X136521634Y-97615062D01*
X155024442Y-90461955D02*
X154855161Y-90300547D01*
X130049588Y-89139201D02*
X130049588Y-89139201D01*
X140420926Y-99835856D02*
X139727628Y-99622325D01*
X135303403Y-94697947D02*
X135303403Y-93276378D01*
X135120145Y-93390910D02*
X127750546Y-90335978D01*
X139497830Y-86336253D02*
X139497830Y-86336253D01*
X148804349Y-85174876D02*
X148662625Y-84981974D01*
X144064450Y-88351817D02*
X143277127Y-87060588D01*
X133419461Y-96225383D02*
X134848538Y-95012858D01*
X129539975Y-104250956D02*
X129539975Y-102822306D01*
X152593656Y-96540324D02*
X152593656Y-95910441D01*
X139025418Y-87092082D02*
X138238065Y-88383372D01*
X154288785Y-101997935D02*
X154288785Y-101327433D01*
X148883084Y-104382426D02*
X151339627Y-106838969D01*
X138354642Y-93873210D02*
X138354642Y-91837291D01*
X127337155Y-90733592D02*
X127498563Y-90902873D01*
X128065457Y-93402751D02*
X127939481Y-93611369D01*
X145565366Y-98244944D02*
X145812406Y-97603251D01*
X151780545Y-85611857D02*
X151560086Y-85517375D01*
X140727811Y-104250956D02*
X140727811Y-103154094D01*
X135981442Y-94241069D02*
X135981442Y-92223857D01*
X133608274Y-104350932D02*
X133608274Y-104250956D01*
X155055936Y-101988810D02*
X155059873Y-101748668D01*
X149881467Y-104250956D02*
X149881467Y-103154094D01*
X148883084Y-96225383D02*
X148303403Y-96766703D01*
X130896085Y-96540324D02*
X130896085Y-95910441D01*
X128159940Y-98492991D02*
X127963101Y-98618937D01*
X154300077Y-93383036D02*
X154300077Y-93383036D01*
X142083890Y-101047129D02*
X142083890Y-99781169D01*
X154079618Y-93327922D02*
X148694119Y-94398723D01*
X145009275Y-89926555D02*
X144473905Y-89044719D01*
X146670651Y-110067057D02*
X146835996Y-110114329D01*
X150898557Y-104250956D02*
X150898557Y-103154094D01*
X147481595Y-97437907D02*
X146447202Y-98156382D01*
X154898465Y-101579387D02*
X151087705Y-100004680D01*
D11*
X150548095Y-69049104D02*
X150071905Y-69049104D01*
X150643333Y-69334819D02*
X150310000Y-68334819D01*
X150310000Y-68334819D02*
X149976667Y-69334819D01*
X149214762Y-68668152D02*
X149214762Y-69477676D01*
X149214762Y-69477676D02*
X149262381Y-69572914D01*
X149262381Y-69572914D02*
X149310000Y-69620533D01*
X149310000Y-69620533D02*
X149405238Y-69668152D01*
X149405238Y-69668152D02*
X149548095Y-69668152D01*
X149548095Y-69668152D02*
X149643333Y-69620533D01*
X149214762Y-69287200D02*
X149310000Y-69334819D01*
X149310000Y-69334819D02*
X149500476Y-69334819D01*
X149500476Y-69334819D02*
X149595714Y-69287200D01*
X149595714Y-69287200D02*
X149643333Y-69239580D01*
X149643333Y-69239580D02*
X149690952Y-69144342D01*
X149690952Y-69144342D02*
X149690952Y-68858628D01*
X149690952Y-68858628D02*
X149643333Y-68763390D01*
X149643333Y-68763390D02*
X149595714Y-68715771D01*
X149595714Y-68715771D02*
X149500476Y-68668152D01*
X149500476Y-68668152D02*
X149310000Y-68668152D01*
X149310000Y-68668152D02*
X149214762Y-68715771D01*
X148738571Y-68668152D02*
X148738571Y-69334819D01*
X148738571Y-68763390D02*
X148690952Y-68715771D01*
X148690952Y-68715771D02*
X148595714Y-68668152D01*
X148595714Y-68668152D02*
X148452857Y-68668152D01*
X148452857Y-68668152D02*
X148357619Y-68715771D01*
X148357619Y-68715771D02*
X148310000Y-68811009D01*
X148310000Y-68811009D02*
X148310000Y-69334819D01*
X147690952Y-69334819D02*
X147786190Y-69287200D01*
X147786190Y-69287200D02*
X147833809Y-69239580D01*
X147833809Y-69239580D02*
X147881428Y-69144342D01*
X147881428Y-69144342D02*
X147881428Y-68858628D01*
X147881428Y-68858628D02*
X147833809Y-68763390D01*
X147833809Y-68763390D02*
X147786190Y-68715771D01*
X147786190Y-68715771D02*
X147690952Y-68668152D01*
X147690952Y-68668152D02*
X147548095Y-68668152D01*
X147548095Y-68668152D02*
X147452857Y-68715771D01*
X147452857Y-68715771D02*
X147405238Y-68763390D01*
X147405238Y-68763390D02*
X147357619Y-68858628D01*
X147357619Y-68858628D02*
X147357619Y-69144342D01*
X147357619Y-69144342D02*
X147405238Y-69239580D01*
X147405238Y-69239580D02*
X147452857Y-69287200D01*
X147452857Y-69287200D02*
X147548095Y-69334819D01*
X147548095Y-69334819D02*
X147690952Y-69334819D01*
X146976666Y-69287200D02*
X146881428Y-69334819D01*
X146881428Y-69334819D02*
X146690952Y-69334819D01*
X146690952Y-69334819D02*
X146595714Y-69287200D01*
X146595714Y-69287200D02*
X146548095Y-69191961D01*
X146548095Y-69191961D02*
X146548095Y-69144342D01*
X146548095Y-69144342D02*
X146595714Y-69049104D01*
X146595714Y-69049104D02*
X146690952Y-69001485D01*
X146690952Y-69001485D02*
X146833809Y-69001485D01*
X146833809Y-69001485D02*
X146929047Y-68953866D01*
X146929047Y-68953866D02*
X146976666Y-68858628D01*
X146976666Y-68858628D02*
X146976666Y-68811009D01*
X146976666Y-68811009D02*
X146929047Y-68715771D01*
X146929047Y-68715771D02*
X146833809Y-68668152D01*
X146833809Y-68668152D02*
X146690952Y-68668152D01*
X146690952Y-68668152D02*
X146595714Y-68715771D01*
X146262380Y-68668152D02*
X145881428Y-68668152D01*
X146119523Y-68334819D02*
X146119523Y-69191961D01*
X146119523Y-69191961D02*
X146071904Y-69287200D01*
X146071904Y-69287200D02*
X145976666Y-69334819D01*
X145976666Y-69334819D02*
X145881428Y-69334819D01*
X145548094Y-69334819D02*
X145548094Y-68668152D01*
X145548094Y-68334819D02*
X145595713Y-68382438D01*
X145595713Y-68382438D02*
X145548094Y-68430057D01*
X145548094Y-68430057D02*
X145500475Y-68382438D01*
X145500475Y-68382438D02*
X145548094Y-68334819D01*
X145548094Y-68334819D02*
X145548094Y-68430057D01*
X144643333Y-69287200D02*
X144738571Y-69334819D01*
X144738571Y-69334819D02*
X144929047Y-69334819D01*
X144929047Y-69334819D02*
X145024285Y-69287200D01*
X145024285Y-69287200D02*
X145071904Y-69239580D01*
X145071904Y-69239580D02*
X145119523Y-69144342D01*
X145119523Y-69144342D02*
X145119523Y-68858628D01*
X145119523Y-68858628D02*
X145071904Y-68763390D01*
X145071904Y-68763390D02*
X145024285Y-68715771D01*
X145024285Y-68715771D02*
X144929047Y-68668152D01*
X144929047Y-68668152D02*
X144738571Y-68668152D01*
X144738571Y-68668152D02*
X144643333Y-68715771D01*
X143119523Y-68811009D02*
X142976666Y-68858628D01*
X142976666Y-68858628D02*
X142929047Y-68906247D01*
X142929047Y-68906247D02*
X142881428Y-69001485D01*
X142881428Y-69001485D02*
X142881428Y-69144342D01*
X142881428Y-69144342D02*
X142929047Y-69239580D01*
X142929047Y-69239580D02*
X142976666Y-69287200D01*
X142976666Y-69287200D02*
X143071904Y-69334819D01*
X143071904Y-69334819D02*
X143452856Y-69334819D01*
X143452856Y-69334819D02*
X143452856Y-68334819D01*
X143452856Y-68334819D02*
X143119523Y-68334819D01*
X143119523Y-68334819D02*
X143024285Y-68382438D01*
X143024285Y-68382438D02*
X142976666Y-68430057D01*
X142976666Y-68430057D02*
X142929047Y-68525295D01*
X142929047Y-68525295D02*
X142929047Y-68620533D01*
X142929047Y-68620533D02*
X142976666Y-68715771D01*
X142976666Y-68715771D02*
X143024285Y-68763390D01*
X143024285Y-68763390D02*
X143119523Y-68811009D01*
X143119523Y-68811009D02*
X143452856Y-68811009D01*
X142309999Y-69334819D02*
X142405237Y-69287200D01*
X142405237Y-69287200D02*
X142452856Y-69239580D01*
X142452856Y-69239580D02*
X142500475Y-69144342D01*
X142500475Y-69144342D02*
X142500475Y-68858628D01*
X142500475Y-68858628D02*
X142452856Y-68763390D01*
X142452856Y-68763390D02*
X142405237Y-68715771D01*
X142405237Y-68715771D02*
X142309999Y-68668152D01*
X142309999Y-68668152D02*
X142167142Y-68668152D01*
X142167142Y-68668152D02*
X142071904Y-68715771D01*
X142071904Y-68715771D02*
X142024285Y-68763390D01*
X142024285Y-68763390D02*
X141976666Y-68858628D01*
X141976666Y-68858628D02*
X141976666Y-69144342D01*
X141976666Y-69144342D02*
X142024285Y-69239580D01*
X142024285Y-69239580D02*
X142071904Y-69287200D01*
X142071904Y-69287200D02*
X142167142Y-69334819D01*
X142167142Y-69334819D02*
X142309999Y-69334819D01*
X141643332Y-69334819D02*
X141119523Y-68668152D01*
X141643332Y-68668152D02*
X141119523Y-69334819D01*
X139976665Y-69334819D02*
X139976665Y-68334819D01*
X139976665Y-68334819D02*
X139405237Y-69334819D01*
X139405237Y-69334819D02*
X139405237Y-68334819D01*
X138976665Y-69049104D02*
X138500475Y-69049104D01*
X139071903Y-69334819D02*
X138738570Y-68334819D01*
X138738570Y-68334819D02*
X138405237Y-69334819D01*
X138071903Y-69334819D02*
X138071903Y-68334819D01*
X138071903Y-68334819D02*
X137500475Y-69334819D01*
X137500475Y-69334819D02*
X137500475Y-68334819D01*
X136833808Y-68334819D02*
X136643332Y-68334819D01*
X136643332Y-68334819D02*
X136548094Y-68382438D01*
X136548094Y-68382438D02*
X136452856Y-68477676D01*
X136452856Y-68477676D02*
X136405237Y-68668152D01*
X136405237Y-68668152D02*
X136405237Y-69001485D01*
X136405237Y-69001485D02*
X136452856Y-69191961D01*
X136452856Y-69191961D02*
X136548094Y-69287200D01*
X136548094Y-69287200D02*
X136643332Y-69334819D01*
X136643332Y-69334819D02*
X136833808Y-69334819D01*
X136833808Y-69334819D02*
X136929046Y-69287200D01*
X136929046Y-69287200D02*
X137024284Y-69191961D01*
X137024284Y-69191961D02*
X137071903Y-69001485D01*
X137071903Y-69001485D02*
X137071903Y-68668152D01*
X137071903Y-68668152D02*
X137024284Y-68477676D01*
X137024284Y-68477676D02*
X136929046Y-68382438D01*
X136929046Y-68382438D02*
X136833808Y-68334819D01*
X135976665Y-68953866D02*
X135214761Y-68953866D01*
X134786189Y-69049104D02*
X134309999Y-69049104D01*
X134881427Y-69334819D02*
X134548094Y-68334819D01*
X134548094Y-68334819D02*
X134214761Y-69334819D01*
X133881427Y-69334819D02*
X133881427Y-68668152D01*
X133881427Y-68763390D02*
X133833808Y-68715771D01*
X133833808Y-68715771D02*
X133738570Y-68668152D01*
X133738570Y-68668152D02*
X133595713Y-68668152D01*
X133595713Y-68668152D02*
X133500475Y-68715771D01*
X133500475Y-68715771D02*
X133452856Y-68811009D01*
X133452856Y-68811009D02*
X133452856Y-69334819D01*
X133452856Y-68811009D02*
X133405237Y-68715771D01*
X133405237Y-68715771D02*
X133309999Y-68668152D01*
X133309999Y-68668152D02*
X133167142Y-68668152D01*
X133167142Y-68668152D02*
X133071903Y-68715771D01*
X133071903Y-68715771D02*
X133024284Y-68811009D01*
X133024284Y-68811009D02*
X133024284Y-69334819D01*
X132548094Y-68668152D02*
X132548094Y-69668152D01*
X132548094Y-68715771D02*
X132452856Y-68668152D01*
X132452856Y-68668152D02*
X132262380Y-68668152D01*
X132262380Y-68668152D02*
X132167142Y-68715771D01*
X132167142Y-68715771D02*
X132119523Y-68763390D01*
X132119523Y-68763390D02*
X132071904Y-68858628D01*
X132071904Y-68858628D02*
X132071904Y-69144342D01*
X132071904Y-69144342D02*
X132119523Y-69239580D01*
X132119523Y-69239580D02*
X132167142Y-69287200D01*
X132167142Y-69287200D02*
X132262380Y-69334819D01*
X132262380Y-69334819D02*
X132452856Y-69334819D01*
X132452856Y-69334819D02*
X132548094Y-69287200D01*
X144406077Y-71222200D02*
X143167982Y-71222200D01*
X144310839Y-71507914D02*
X144310839Y-72269819D01*
X143501316Y-72269819D02*
X143215601Y-72269819D01*
X144310839Y-71507914D02*
X143215601Y-71507914D01*
X143215601Y-71507914D02*
X143215601Y-72269819D01*
X143834649Y-71888866D02*
X143929887Y-71793628D01*
X143929887Y-71793628D02*
X144025125Y-71698390D01*
X143596554Y-71698390D02*
X143501316Y-71793628D01*
X143501316Y-71793628D02*
X143406077Y-71984104D01*
X143977506Y-71222200D02*
X143977506Y-71460295D01*
X143977506Y-71460295D02*
X143977506Y-71650771D01*
X143977506Y-71650771D02*
X144072744Y-71841247D01*
X144072744Y-71841247D02*
X144167982Y-72031723D01*
X143548935Y-71222200D02*
X143596554Y-71460295D01*
X143596554Y-71460295D02*
X143596554Y-71650771D01*
X143596554Y-71650771D02*
X143644173Y-71793628D01*
X143644173Y-71793628D02*
X143787030Y-72031723D01*
X142929887Y-71888866D02*
X141691792Y-71888866D01*
X142310840Y-71698390D02*
X142310840Y-72269819D01*
X142453697Y-71126961D02*
X142691792Y-71365057D01*
X142691792Y-71365057D02*
X142882268Y-71460295D01*
X142358459Y-71888866D02*
X142548935Y-72079342D01*
X142548935Y-72079342D02*
X142929887Y-72222200D01*
X142263221Y-71888866D02*
X142072745Y-72079342D01*
X142072745Y-72079342D02*
X141691792Y-72222200D01*
X142596554Y-71317438D02*
X142406078Y-71507914D01*
X142406078Y-71507914D02*
X142167983Y-71603152D01*
X142167983Y-71603152D02*
X141739411Y-71746009D01*
X142596554Y-71269819D02*
X142025126Y-71269819D01*
X142025126Y-71269819D02*
X142215602Y-71507914D01*
X142215602Y-71507914D02*
X142501316Y-71650771D01*
X142501316Y-71650771D02*
X142882268Y-71746009D01*
X141358459Y-71841247D02*
X141120364Y-71841247D01*
X141358459Y-71507914D02*
X141120364Y-71507914D01*
X141263221Y-72269819D02*
X141120364Y-72269819D01*
X141025126Y-71412676D02*
X140882269Y-71555533D01*
X140977507Y-71174580D02*
X140882269Y-71269819D01*
X140691793Y-71603152D02*
X140310840Y-71603152D01*
X140691793Y-71412676D02*
X140310840Y-71412676D01*
X140691793Y-71174580D02*
X140691793Y-72079342D01*
X140691793Y-72269819D02*
X140215602Y-72269819D01*
X140548936Y-71650771D02*
X140358459Y-72031723D01*
X140453697Y-72031723D02*
X140787031Y-72079342D01*
X140453697Y-71888866D02*
X140263221Y-72079342D01*
X140263221Y-71746009D02*
X140453697Y-71841247D01*
X141358459Y-71174580D02*
X141358459Y-71888866D01*
X141358459Y-71888866D02*
X141453697Y-72269819D01*
X141358459Y-71174580D02*
X141120364Y-71174580D01*
X141120364Y-71174580D02*
X141120364Y-72269819D01*
X140691793Y-71174580D02*
X140310840Y-71174580D01*
X140310840Y-71174580D02*
X140310840Y-71603152D01*
X141025126Y-71746009D02*
X140882269Y-71746009D01*
X140882269Y-71746009D02*
X140882269Y-72126961D01*
X140882269Y-72126961D02*
X141025126Y-72222200D01*
X139929888Y-71603152D02*
X138787031Y-71603152D01*
X139834650Y-71317438D02*
X138882269Y-71317438D01*
X139358460Y-71126961D02*
X139358460Y-72222200D01*
X139310841Y-71888866D02*
X138882269Y-71888866D01*
X139739412Y-71746009D02*
X139739412Y-71984104D01*
X139739412Y-71984104D02*
X139929888Y-72222200D01*
X139739412Y-71984104D02*
X139501317Y-72174580D01*
X139501317Y-72174580D02*
X139072746Y-72269819D01*
X139072746Y-72269819D02*
X138739412Y-72269819D01*
X138406079Y-71555533D02*
X138025127Y-71555533D01*
X138406079Y-71222200D02*
X138406079Y-71555533D01*
X138406079Y-71746009D02*
X138406079Y-72174580D01*
X138215603Y-71793628D02*
X138025127Y-71793628D01*
X138215603Y-71507914D02*
X138215603Y-72126961D01*
X138025127Y-72126961D02*
X138501317Y-72174580D01*
X137834651Y-71841247D02*
X137834651Y-72269819D01*
X137834651Y-72222200D02*
X137310841Y-72222200D01*
X138406079Y-71222200D02*
X138025127Y-71222200D01*
X138025127Y-71222200D02*
X138025127Y-71555533D01*
X137834651Y-71841247D02*
X137310841Y-71841247D01*
X137310841Y-71841247D02*
X137310841Y-72269819D01*
X137739413Y-71126961D02*
X137834651Y-71365057D01*
X137834651Y-71365057D02*
X137977508Y-71507914D01*
X137787032Y-71317438D02*
X137739413Y-71507914D01*
X137739413Y-71507914D02*
X137453698Y-71793628D01*
X137453698Y-71793628D02*
X137263222Y-71841247D01*
X137787032Y-71269819D02*
X137406079Y-71269819D01*
X137406079Y-71269819D02*
X137501317Y-71507914D01*
X137501317Y-71507914D02*
X137787032Y-71746009D01*
X137787032Y-71746009D02*
X138025127Y-71841247D01*
X172491792Y-107649636D02*
X172539411Y-107697256D01*
X172539411Y-107697256D02*
X172682268Y-107744875D01*
X172682268Y-107744875D02*
X172777506Y-107744875D01*
X172777506Y-107744875D02*
X172920363Y-107697256D01*
X172920363Y-107697256D02*
X173015601Y-107602017D01*
X173015601Y-107602017D02*
X173063220Y-107506779D01*
X173063220Y-107506779D02*
X173110839Y-107316303D01*
X173110839Y-107316303D02*
X173110839Y-107173446D01*
X173110839Y-107173446D02*
X173063220Y-106982970D01*
X173063220Y-106982970D02*
X173015601Y-106887732D01*
X173015601Y-106887732D02*
X172920363Y-106792494D01*
X172920363Y-106792494D02*
X172777506Y-106744875D01*
X172777506Y-106744875D02*
X172682268Y-106744875D01*
X172682268Y-106744875D02*
X172539411Y-106792494D01*
X172539411Y-106792494D02*
X172491792Y-106840113D01*
X172063220Y-107744875D02*
X172063220Y-106744875D01*
X171634649Y-107744875D02*
X171634649Y-107221065D01*
X171634649Y-107221065D02*
X171682268Y-107125827D01*
X171682268Y-107125827D02*
X171777506Y-107078208D01*
X171777506Y-107078208D02*
X171920363Y-107078208D01*
X171920363Y-107078208D02*
X172015601Y-107125827D01*
X172015601Y-107125827D02*
X172063220Y-107173446D01*
X171158458Y-107744875D02*
X171158458Y-107078208D01*
X171158458Y-106744875D02*
X171206077Y-106792494D01*
X171206077Y-106792494D02*
X171158458Y-106840113D01*
X171158458Y-106840113D02*
X171110839Y-106792494D01*
X171110839Y-106792494D02*
X171158458Y-106744875D01*
X171158458Y-106744875D02*
X171158458Y-106840113D01*
X169920363Y-107744875D02*
X169920363Y-106744875D01*
X169491792Y-107744875D02*
X169491792Y-107221065D01*
X169491792Y-107221065D02*
X169539411Y-107125827D01*
X169539411Y-107125827D02*
X169634649Y-107078208D01*
X169634649Y-107078208D02*
X169777506Y-107078208D01*
X169777506Y-107078208D02*
X169872744Y-107125827D01*
X169872744Y-107125827D02*
X169920363Y-107173446D01*
X168587030Y-107744875D02*
X168587030Y-107221065D01*
X168587030Y-107221065D02*
X168634649Y-107125827D01*
X168634649Y-107125827D02*
X168729887Y-107078208D01*
X168729887Y-107078208D02*
X168920363Y-107078208D01*
X168920363Y-107078208D02*
X169015601Y-107125827D01*
X168587030Y-107697256D02*
X168682268Y-107744875D01*
X168682268Y-107744875D02*
X168920363Y-107744875D01*
X168920363Y-107744875D02*
X169015601Y-107697256D01*
X169015601Y-107697256D02*
X169063220Y-107602017D01*
X169063220Y-107602017D02*
X169063220Y-107506779D01*
X169063220Y-107506779D02*
X169015601Y-107411541D01*
X169015601Y-107411541D02*
X168920363Y-107363922D01*
X168920363Y-107363922D02*
X168682268Y-107363922D01*
X168682268Y-107363922D02*
X168587030Y-107316303D01*
X172634649Y-108688152D02*
X172634649Y-109354819D01*
X173063220Y-108688152D02*
X173063220Y-109211961D01*
X173063220Y-109211961D02*
X173015601Y-109307200D01*
X173015601Y-109307200D02*
X172920363Y-109354819D01*
X172920363Y-109354819D02*
X172777506Y-109354819D01*
X172777506Y-109354819D02*
X172682268Y-109307200D01*
X172682268Y-109307200D02*
X172634649Y-109259580D01*
X171729887Y-109307200D02*
X171825125Y-109354819D01*
X171825125Y-109354819D02*
X172015601Y-109354819D01*
X172015601Y-109354819D02*
X172110839Y-109307200D01*
X172110839Y-109307200D02*
X172158458Y-109259580D01*
X172158458Y-109259580D02*
X172206077Y-109164342D01*
X172206077Y-109164342D02*
X172206077Y-108878628D01*
X172206077Y-108878628D02*
X172158458Y-108783390D01*
X172158458Y-108783390D02*
X172110839Y-108735771D01*
X172110839Y-108735771D02*
X172015601Y-108688152D01*
X172015601Y-108688152D02*
X171825125Y-108688152D01*
X171825125Y-108688152D02*
X171729887Y-108735771D01*
X170872744Y-109307200D02*
X170967982Y-109354819D01*
X170967982Y-109354819D02*
X171158458Y-109354819D01*
X171158458Y-109354819D02*
X171253696Y-109307200D01*
X171253696Y-109307200D02*
X171301315Y-109259580D01*
X171301315Y-109259580D02*
X171348934Y-109164342D01*
X171348934Y-109164342D02*
X171348934Y-108878628D01*
X171348934Y-108878628D02*
X171301315Y-108783390D01*
X171301315Y-108783390D02*
X171253696Y-108735771D01*
X171253696Y-108735771D02*
X171158458Y-108688152D01*
X171158458Y-108688152D02*
X170967982Y-108688152D01*
X170967982Y-108688152D02*
X170872744Y-108735771D01*
X170444172Y-109354819D02*
X170444172Y-108688152D01*
X170444172Y-108354819D02*
X170491791Y-108402438D01*
X170491791Y-108402438D02*
X170444172Y-108450057D01*
X170444172Y-108450057D02*
X170396553Y-108402438D01*
X170396553Y-108402438D02*
X170444172Y-108354819D01*
X170444172Y-108354819D02*
X170444172Y-108450057D01*
X170015601Y-109307200D02*
X169920363Y-109354819D01*
X169920363Y-109354819D02*
X169729887Y-109354819D01*
X169729887Y-109354819D02*
X169634649Y-109307200D01*
X169634649Y-109307200D02*
X169587030Y-109211961D01*
X169587030Y-109211961D02*
X169587030Y-109164342D01*
X169587030Y-109164342D02*
X169634649Y-109069104D01*
X169634649Y-109069104D02*
X169729887Y-109021485D01*
X169729887Y-109021485D02*
X169872744Y-109021485D01*
X169872744Y-109021485D02*
X169967982Y-108973866D01*
X169967982Y-108973866D02*
X170015601Y-108878628D01*
X170015601Y-108878628D02*
X170015601Y-108831009D01*
X170015601Y-108831009D02*
X169967982Y-108735771D01*
X169967982Y-108735771D02*
X169872744Y-108688152D01*
X169872744Y-108688152D02*
X169729887Y-108688152D01*
X169729887Y-108688152D02*
X169634649Y-108735771D01*
X169015601Y-109354819D02*
X169110839Y-109307200D01*
X169110839Y-109307200D02*
X169158458Y-109259580D01*
X169158458Y-109259580D02*
X169206077Y-109164342D01*
X169206077Y-109164342D02*
X169206077Y-108878628D01*
X169206077Y-108878628D02*
X169158458Y-108783390D01*
X169158458Y-108783390D02*
X169110839Y-108735771D01*
X169110839Y-108735771D02*
X169015601Y-108688152D01*
X169015601Y-108688152D02*
X168872744Y-108688152D01*
X168872744Y-108688152D02*
X168777506Y-108735771D01*
X168777506Y-108735771D02*
X168729887Y-108783390D01*
X168729887Y-108783390D02*
X168682268Y-108878628D01*
X168682268Y-108878628D02*
X168682268Y-109164342D01*
X168682268Y-109164342D02*
X168729887Y-109259580D01*
X168729887Y-109259580D02*
X168777506Y-109307200D01*
X168777506Y-109307200D02*
X168872744Y-109354819D01*
X168872744Y-109354819D02*
X169015601Y-109354819D01*
X173063220Y-110964763D02*
X173063220Y-109964763D01*
X172444173Y-110964763D02*
X172539411Y-110917144D01*
X172539411Y-110917144D02*
X172587030Y-110821905D01*
X172587030Y-110821905D02*
X172587030Y-109964763D01*
X170729887Y-110869524D02*
X170777506Y-110917144D01*
X170777506Y-110917144D02*
X170920363Y-110964763D01*
X170920363Y-110964763D02*
X171015601Y-110964763D01*
X171015601Y-110964763D02*
X171158458Y-110917144D01*
X171158458Y-110917144D02*
X171253696Y-110821905D01*
X171253696Y-110821905D02*
X171301315Y-110726667D01*
X171301315Y-110726667D02*
X171348934Y-110536191D01*
X171348934Y-110536191D02*
X171348934Y-110393334D01*
X171348934Y-110393334D02*
X171301315Y-110202858D01*
X171301315Y-110202858D02*
X171253696Y-110107620D01*
X171253696Y-110107620D02*
X171158458Y-110012382D01*
X171158458Y-110012382D02*
X171015601Y-109964763D01*
X171015601Y-109964763D02*
X170920363Y-109964763D01*
X170920363Y-109964763D02*
X170777506Y-110012382D01*
X170777506Y-110012382D02*
X170729887Y-110060001D01*
X170158458Y-110964763D02*
X170253696Y-110917144D01*
X170253696Y-110917144D02*
X170301315Y-110869524D01*
X170301315Y-110869524D02*
X170348934Y-110774286D01*
X170348934Y-110774286D02*
X170348934Y-110488572D01*
X170348934Y-110488572D02*
X170301315Y-110393334D01*
X170301315Y-110393334D02*
X170253696Y-110345715D01*
X170253696Y-110345715D02*
X170158458Y-110298096D01*
X170158458Y-110298096D02*
X170015601Y-110298096D01*
X170015601Y-110298096D02*
X169920363Y-110345715D01*
X169920363Y-110345715D02*
X169872744Y-110393334D01*
X169872744Y-110393334D02*
X169825125Y-110488572D01*
X169825125Y-110488572D02*
X169825125Y-110774286D01*
X169825125Y-110774286D02*
X169872744Y-110869524D01*
X169872744Y-110869524D02*
X169920363Y-110917144D01*
X169920363Y-110917144D02*
X170015601Y-110964763D01*
X170015601Y-110964763D02*
X170158458Y-110964763D01*
X169396553Y-110298096D02*
X169396553Y-110964763D01*
X169396553Y-110393334D02*
X169348934Y-110345715D01*
X169348934Y-110345715D02*
X169253696Y-110298096D01*
X169253696Y-110298096D02*
X169110839Y-110298096D01*
X169110839Y-110298096D02*
X169015601Y-110345715D01*
X169015601Y-110345715D02*
X168967982Y-110440953D01*
X168967982Y-110440953D02*
X168967982Y-110964763D01*
X168634648Y-110298096D02*
X168253696Y-110298096D01*
X168491791Y-109964763D02*
X168491791Y-110821905D01*
X168491791Y-110821905D02*
X168444172Y-110917144D01*
X168444172Y-110917144D02*
X168348934Y-110964763D01*
X168348934Y-110964763D02*
X168253696Y-110964763D01*
X167539410Y-110917144D02*
X167634648Y-110964763D01*
X167634648Y-110964763D02*
X167825124Y-110964763D01*
X167825124Y-110964763D02*
X167920362Y-110917144D01*
X167920362Y-110917144D02*
X167967981Y-110821905D01*
X167967981Y-110821905D02*
X167967981Y-110440953D01*
X167967981Y-110440953D02*
X167920362Y-110345715D01*
X167920362Y-110345715D02*
X167825124Y-110298096D01*
X167825124Y-110298096D02*
X167634648Y-110298096D01*
X167634648Y-110298096D02*
X167539410Y-110345715D01*
X167539410Y-110345715D02*
X167491791Y-110440953D01*
X167491791Y-110440953D02*
X167491791Y-110536191D01*
X167491791Y-110536191D02*
X167967981Y-110631429D01*
X166920362Y-110869524D02*
X166872743Y-110917144D01*
X166872743Y-110917144D02*
X166920362Y-110964763D01*
X166920362Y-110964763D02*
X166967981Y-110917144D01*
X166967981Y-110917144D02*
X166920362Y-110869524D01*
X166920362Y-110869524D02*
X166920362Y-110964763D01*
X167110838Y-110012382D02*
X167015600Y-109964763D01*
X167015600Y-109964763D02*
X166777505Y-109964763D01*
X166777505Y-109964763D02*
X166682267Y-110012382D01*
X166682267Y-110012382D02*
X166634648Y-110107620D01*
X166634648Y-110107620D02*
X166634648Y-110202858D01*
X166634648Y-110202858D02*
X166682267Y-110298096D01*
X166682267Y-110298096D02*
X166729886Y-110345715D01*
X166729886Y-110345715D02*
X166825124Y-110393334D01*
X166825124Y-110393334D02*
X166872743Y-110440953D01*
X166872743Y-110440953D02*
X166920362Y-110536191D01*
X166920362Y-110536191D02*
X166920362Y-110583810D01*
M02*
