%TF.GenerationSoftware,KiCad,Pcbnew,9.0.7*%
%TF.CreationDate,2026-05-06T18:49:10+08:00*%
%TF.ProjectId,PCB_new,5043425f-6e65-4772-9e6b-696361645f70,rev?*%
%TF.SameCoordinates,Original*%
%TF.FileFunction,Copper,L2,Bot*%
%TF.FilePolarity,Positive*%
%FSLAX46Y46*%
G04 Gerber Fmt 4.6, Leading zero omitted, Abs format (unit mm)*
G04 Created by KiCad (PCBNEW 9.0.7) date 2026-05-06 18:49:10*
%MOMM*%
%LPD*%
G01*
G04 APERTURE LIST*
%TA.AperFunction,ComponentPad*%
%ADD10R,1.800000X1.800000*%
%TD*%
%TA.AperFunction,ComponentPad*%
%ADD11C,1.800000*%
%TD*%
%TA.AperFunction,ComponentPad*%
%ADD12R,1.700000X1.700000*%
%TD*%
%TA.AperFunction,ComponentPad*%
%ADD13O,1.778000X3.556000*%
%TD*%
%TA.AperFunction,ComponentPad*%
%ADD14C,1.600000*%
%TD*%
%TA.AperFunction,ComponentPad*%
%ADD15O,1.600000X1.600000*%
%TD*%
%TA.AperFunction,ComponentPad*%
%ADD16C,2.000000*%
%TD*%
%TA.AperFunction,ComponentPad*%
%ADD17R,1.600000X1.600000*%
%TD*%
%TA.AperFunction,ComponentPad*%
%ADD18O,1.700000X1.700000*%
%TD*%
%TA.AperFunction,ComponentPad*%
%ADD19R,3.000000X3.000000*%
%TD*%
%TA.AperFunction,ComponentPad*%
%ADD20C,3.000000*%
%TD*%
%TA.AperFunction,ComponentPad*%
%ADD21C,1.700000*%
%TD*%
%TA.AperFunction,ViaPad*%
%ADD22C,0.800000*%
%TD*%
%TA.AperFunction,Conductor*%
%ADD23C,0.500000*%
%TD*%
G04 APERTURE END LIST*
D10*
%TO.P,LED2(D5),1,K*%
%TO.N,GND*%
X118760000Y-124420000D03*
D11*
%TO.P,LED2(D5),2,A*%
%TO.N,Net-(D2-A)*%
X121300000Y-124420000D03*
%TD*%
D12*
%TO.P,,1*%
%TO.N,N/C*%
X145060000Y-99070000D03*
%TD*%
%TO.P,,1*%
%TO.N,N/C*%
X130400000Y-113370000D03*
%TD*%
%TO.P,,1*%
%TO.N,N/C*%
X141860000Y-120980000D03*
%TD*%
D13*
%TO.P,U1,ADO,ADO*%
%TO.N,unconnected-(U1-PadADO)*%
X146950000Y-80290000D03*
%TO.P,U1,GND,GND*%
%TO.N,GND*%
X134250000Y-80290000D03*
%TO.P,U1,INT,INT*%
%TO.N,unconnected-(U1-PadINT)*%
X149490000Y-80290000D03*
%TO.P,U1,SCL,SCL*%
%TO.N,Net-(A1-A5)*%
X136790000Y-80290000D03*
%TO.P,U1,SDA,SDA*%
%TO.N,Net-(A1-A4)*%
X139330000Y-80290000D03*
%TO.P,U1,VCC,VCC*%
%TO.N,VCC*%
X131710000Y-80290000D03*
%TO.P,U1,XCL,XCL*%
%TO.N,unconnected-(U1-PadXCL)*%
X144410000Y-80290000D03*
%TO.P,U1,XDA,XDA*%
%TO.N,unconnected-(U1-PadXDA)*%
X141870000Y-80290000D03*
%TD*%
D10*
%TO.P,LED3(D6),1,K*%
%TO.N,GND*%
X125480000Y-124360000D03*
D11*
%TO.P,LED3(D6),2,A*%
%TO.N,Net-(D3-A)*%
X128020000Y-124360000D03*
%TD*%
D12*
%TO.P,,1*%
%TO.N,N/C*%
X154070000Y-99790000D03*
%TD*%
D14*
%TO.P,R6-10k,1*%
%TO.N,GND*%
X119030000Y-117490000D03*
D15*
%TO.P,R6-10k,2*%
%TO.N,Net-(A1-Pad15)*%
X119030000Y-109870000D03*
%TD*%
D12*
%TO.P,,1*%
%TO.N,N/C*%
X152740000Y-92880000D03*
%TD*%
%TO.P,,1*%
%TO.N,N/C*%
X136900000Y-120820000D03*
%TD*%
%TO.P,,1*%
%TO.N,N/C*%
X137080000Y-114000000D03*
%TD*%
%TO.P,,1*%
%TO.N,N/C*%
X164280000Y-94640000D03*
%TD*%
D16*
%TO.P,SW2(D11),1*%
%TO.N,VCC*%
X113620000Y-98320000D03*
X120120000Y-98320000D03*
%TO.P,SW2(D11),2*%
%TO.N,Net-(A1-D11)*%
X113620000Y-102820000D03*
X120120000Y-102820000D03*
%TD*%
D17*
%TO.P,Arduino Nano (or Nano esp32),1,D1/TX*%
%TO.N,unconnected-(A1-D1{slash}TX-Pad1)*%
X133520000Y-88500000D03*
D15*
%TO.P,Arduino Nano (or Nano esp32),2,D0/RX*%
%TO.N,unconnected-(A1-D0{slash}RX-Pad2)*%
X133520000Y-91040000D03*
%TO.P,Arduino Nano (or Nano esp32),3,~{RESET}*%
%TO.N,unconnected-(A1-~{RESET}-Pad3)*%
X133520000Y-93580000D03*
%TO.P,Arduino Nano (or Nano esp32),4,GND*%
%TO.N,GND*%
X133520000Y-96120000D03*
%TO.P,Arduino Nano (or Nano esp32),5,D2*%
%TO.N,unconnected-(A1-D2-Pad5)*%
X133520000Y-98660000D03*
%TO.P,Arduino Nano (or Nano esp32),6,D3*%
%TO.N,unconnected-(A1-D3-Pad6)*%
X133520000Y-101200000D03*
%TO.P,Arduino Nano (or Nano esp32),7,D4*%
%TO.N,Net-(A1-D4)*%
X133520000Y-103740000D03*
%TO.P,Arduino Nano (or Nano esp32),8,D5*%
%TO.N,Net-(A1-D5)*%
X133520000Y-106280000D03*
%TO.P,Arduino Nano (or Nano esp32),9,D6*%
%TO.N,Net-(A1-D6)*%
X133520000Y-108820000D03*
%TO.P,Arduino Nano (or Nano esp32),10,D7*%
%TO.N,unconnected-(A1-D7-Pad10)*%
X133520000Y-111360000D03*
%TO.P,Arduino Nano (or Nano esp32),11,D8*%
%TO.N,unconnected-(A1-D8-Pad11)*%
X133520000Y-113900000D03*
%TO.P,Arduino Nano (or Nano esp32),12,D9*%
%TO.N,Net-(A1-D9)*%
X133520000Y-116440000D03*
%TO.P,Arduino Nano (or Nano esp32),13,D10*%
%TO.N,Net-(A1-D10)*%
X133520000Y-118980000D03*
%TO.P,Arduino Nano (or Nano esp32),14,D11*%
%TO.N,Net-(A1-D11)*%
X133520000Y-121520000D03*
%TO.P,Arduino Nano (or Nano esp32),15,D12*%
%TO.N,Net-(A1-D12)*%
X133520000Y-124060000D03*
%TO.P,Arduino Nano (or Nano esp32),16,D13*%
%TO.N,unconnected-(A1-D13-Pad16)*%
X148760000Y-124060000D03*
%TO.P,Arduino Nano (or Nano esp32),17,3V3*%
%TO.N,VCC*%
X148760000Y-121520000D03*
%TO.P,Arduino Nano (or Nano esp32),18,AREF*%
%TO.N,unconnected-(A1-AREF-Pad18)*%
X148760000Y-118980000D03*
%TO.P,Arduino Nano (or Nano esp32),19,A0*%
%TO.N,unconnected-(A1-A0-Pad19)*%
X148760000Y-116440000D03*
%TO.P,Arduino Nano (or Nano esp32),20,A1*%
%TO.N,Net-(A1-A1)*%
X148760000Y-113900000D03*
%TO.P,Arduino Nano (or Nano esp32),21,A2*%
%TO.N,Net-(A1-A2)*%
X148760000Y-111360000D03*
%TO.P,Arduino Nano (or Nano esp32),22,A3*%
%TO.N,Net-(A1-A3)*%
X148760000Y-108820000D03*
%TO.P,Arduino Nano (or Nano esp32),23,A4*%
%TO.N,Net-(A1-A4)*%
X148760000Y-106280000D03*
%TO.P,Arduino Nano (or Nano esp32),24,A5*%
%TO.N,Net-(A1-A5)*%
X148760000Y-103740000D03*
%TO.P,Arduino Nano (or Nano esp32),25,A6*%
%TO.N,unconnected-(A1-A6-Pad25)*%
X148760000Y-101200000D03*
%TO.P,Arduino Nano (or Nano esp32),26,A7*%
%TO.N,unconnected-(A1-A7-Pad26)*%
X148760000Y-98660000D03*
%TO.P,Arduino Nano (or Nano esp32),27,+5V*%
%TO.N,unconnected-(A1-+5V-Pad27)*%
X148760000Y-96120000D03*
%TO.P,Arduino Nano (or Nano esp32),28,~{RESET}*%
%TO.N,unconnected-(A1-~{RESET}-Pad28)*%
X148760000Y-93580000D03*
%TO.P,Arduino Nano (or Nano esp32),29,GND*%
%TO.N,GND*%
X148760000Y-91040000D03*
%TO.P,Arduino Nano (or Nano esp32),30,VIN*%
%TO.N,Net-(A1-VIN)*%
X148760000Y-88500000D03*
%TD*%
D12*
%TO.P,battery,1,+*%
%TO.N,Net-(A1-VIN)*%
X166080000Y-98810000D03*
D18*
%TO.P,battery,2,-*%
%TO.N,GND*%
X166080000Y-101350000D03*
%TD*%
D14*
%TO.P,R2-220,1*%
%TO.N,Net-(D2-Pad2)*%
X123030000Y-117420000D03*
D15*
%TO.P,R2-220,2*%
%TO.N,Net-(A1-Pad8)*%
X123030000Y-109800000D03*
%TD*%
D12*
%TO.P,,1*%
%TO.N,N/C*%
X144010000Y-109030000D03*
%TD*%
D14*
%TO.P,R3-220,1*%
%TO.N,Net-(D3-Pad2)*%
X127160000Y-117380000D03*
D15*
%TO.P,R3-220,2*%
%TO.N,Net-(A1-Pad9)*%
X127160000Y-109760000D03*
%TD*%
D19*
%TO.P,RV3(A3),1,1*%
%TO.N,GND*%
X157720000Y-93240000D03*
D20*
%TO.P,RV3(A3),2,2*%
%TO.N,Net-(A1-A3)*%
X157720000Y-88240000D03*
%TO.P,RV3(A3),3,3*%
%TO.N,VCC*%
X157720000Y-83240000D03*
%TD*%
D16*
%TO.P,SW3(D12),1*%
%TO.N,VCC*%
X107470000Y-108320000D03*
X113970000Y-108320000D03*
%TO.P,SW3(D12),2*%
%TO.N,Net-(A1-D12)*%
X107470000Y-112820000D03*
X113970000Y-112820000D03*
%TD*%
D12*
%TO.P,PAM8302A,1,Pin_1*%
%TO.N,GND*%
X173900000Y-115600000D03*
D21*
%TO.P,PAM8302A,2,Pin_2*%
%TO.N,VCC*%
X171360000Y-115600000D03*
%TO.P,PAM8302A,3,Pin_3*%
%TO.N,unconnected-(J1-Pin_3-Pad3)*%
X168820000Y-115600000D03*
%TO.P,PAM8302A,4,Pin_4*%
%TO.N,GND*%
X166280000Y-115600000D03*
%TO.P,PAM8302A,5,Pin_5*%
%TO.N,Net-(A1-D9)*%
X163740000Y-115600000D03*
%TD*%
D12*
%TO.P,,1*%
%TO.N,N/C*%
X153450000Y-86090000D03*
%TD*%
D19*
%TO.P,RV2(A2),1,1*%
%TO.N,GND*%
X157640000Y-112410000D03*
D20*
%TO.P,RV2(A2),2,2*%
%TO.N,Net-(A1-A2)*%
X157640000Y-107410000D03*
%TO.P,RV2(A2),3,3*%
%TO.N,VCC*%
X157640000Y-102410000D03*
%TD*%
D16*
%TO.P,SW1(D10),1*%
%TO.N,VCC*%
X119200000Y-88240000D03*
X125700000Y-88240000D03*
%TO.P,SW1(D10),2*%
%TO.N,Net-(A1-D10)*%
X119200000Y-92740000D03*
X125700000Y-92740000D03*
%TD*%
D14*
%TO.P,R1-220,1*%
%TO.N,Net-(D1-Pad2)*%
X128780000Y-105180000D03*
D15*
%TO.P,R1-220,2*%
%TO.N,Net-(A1-Pad7)*%
X128780000Y-97560000D03*
%TD*%
D19*
%TO.P,RV1(A1),1,1*%
%TO.N,GND*%
X154700000Y-124100000D03*
D20*
%TO.P,RV1(A1),2,2*%
%TO.N,Net-(A1-A1)*%
X159700000Y-124100000D03*
%TO.P,RV1(A1),3,3*%
%TO.N,VCC*%
X164700000Y-124100000D03*
%TD*%
D14*
%TO.P,R5-10k,1*%
%TO.N,Net-(A1-Pad14)*%
X124540000Y-105200000D03*
D15*
%TO.P,R5-10k,2*%
%TO.N,GND*%
X124540000Y-97580000D03*
%TD*%
D10*
%TO.P,LED1(D4),1,K*%
%TO.N,GND*%
X111860000Y-124490000D03*
D11*
%TO.P,LED1(D4),2,A*%
%TO.N,Net-(D1-A)*%
X114400000Y-124490000D03*
%TD*%
D14*
%TO.P,R4-10k,1*%
%TO.N,Net-(A1-Pad13)*%
X129500000Y-94460000D03*
D15*
%TO.P,R4-10k,2*%
%TO.N,GND*%
X129500000Y-86840000D03*
%TD*%
D12*
%TO.P,,1*%
%TO.N,N/C*%
X126660000Y-95630000D03*
%TD*%
D22*
%TO.N,Net-(A1-A5)*%
X146100000Y-102510000D03*
X146200000Y-107360000D03*
%TO.N,Net-(A1-Pad13)*%
X130430000Y-111230000D03*
X126610000Y-99170000D03*
%TO.N,GND*%
X163200000Y-99640000D03*
X157430000Y-99640000D03*
%TO.N,Net-(A1-Pad15)*%
X141940000Y-122870000D03*
X136980000Y-122900000D03*
%TO.N,Net-(A1-A3)*%
X155540000Y-86060000D03*
X154720000Y-92830000D03*
%TO.N,Net-(A1-VIN)*%
X152610000Y-99840000D03*
X166080000Y-96500000D03*
%TO.N,Net-(A1-D9)*%
X137000000Y-116440000D03*
%TD*%
D23*
%TO.N,Net-(A1-A5)*%
X146200000Y-107360000D02*
X146200000Y-102610000D01*
X146200000Y-102610000D02*
X146100000Y-102510000D01*
%TO.N,Net-(A1-Pad13)*%
X119200000Y-92740000D02*
X125700000Y-92740000D01*
X130280000Y-109960000D02*
X130280000Y-111080000D01*
X130280000Y-111080000D02*
X130430000Y-111230000D01*
X126610000Y-106290000D02*
X130280000Y-109960000D01*
X126610000Y-99170000D02*
X126610000Y-106290000D01*
%TO.N,Net-(A1-Pad14)*%
X113620000Y-102820000D02*
X120120000Y-102820000D01*
%TO.N,GND*%
X164290000Y-99640000D02*
X163200000Y-99640000D01*
X134250000Y-80290000D02*
X134250000Y-80790000D01*
X166000000Y-101350000D02*
X164290000Y-99640000D01*
X131310000Y-93610000D02*
X131310000Y-95110000D01*
X148760000Y-91040000D02*
X151400000Y-93680000D01*
X127240000Y-89540000D02*
X131310000Y-93610000D01*
X154270000Y-102800000D02*
X157430000Y-99640000D01*
X131310000Y-95110000D02*
X132320000Y-96120000D01*
X132320000Y-96120000D02*
X133520000Y-96120000D01*
X128070000Y-84990000D02*
X127240000Y-85820000D01*
X151400000Y-93680000D02*
X151400000Y-101900000D01*
X134250000Y-80790000D02*
X130050000Y-84990000D01*
X127240000Y-85820000D02*
X127240000Y-89540000D01*
X166080000Y-101350000D02*
X166000000Y-101350000D01*
X130050000Y-84990000D02*
X128070000Y-84990000D01*
X152300000Y-102800000D02*
X154270000Y-102800000D01*
X163200000Y-99640000D02*
X157430000Y-99640000D01*
X151400000Y-101900000D02*
X152300000Y-102800000D01*
%TO.N,Net-(A1-Pad15)*%
X136980000Y-122900000D02*
X141910000Y-122900000D01*
X141910000Y-122900000D02*
X141940000Y-122870000D01*
X136990000Y-122910000D02*
X136980000Y-122900000D01*
%TO.N,Net-(A1-A3)*%
X155540000Y-86060000D02*
X155540000Y-87010000D01*
X154720000Y-87830000D02*
X154720000Y-92830000D01*
X155540000Y-87010000D02*
X154720000Y-87830000D01*
%TO.N,Net-(A1-VIN)*%
X166080000Y-96500000D02*
X153730000Y-96500000D01*
X152610000Y-97620000D02*
X152610000Y-99840000D01*
X153730000Y-96500000D02*
X152610000Y-97620000D01*
X166080000Y-98810000D02*
X166080000Y-98490000D01*
%TO.N,Net-(A1-D9)*%
X141640000Y-116440000D02*
X137000000Y-116440000D01*
X149900000Y-127600000D02*
X146100000Y-127600000D01*
X144400000Y-119200000D02*
X141640000Y-116440000D01*
X151400000Y-126100000D02*
X149900000Y-127600000D01*
X159940000Y-119400000D02*
X155498000Y-119400000D01*
X155498000Y-119400000D02*
X151400000Y-123498000D01*
X146100000Y-127600000D02*
X144400000Y-125900000D01*
X144400000Y-125900000D02*
X144400000Y-119200000D01*
X151400000Y-123498000D02*
X151400000Y-126100000D01*
X137000000Y-116440000D02*
X133520000Y-116440000D01*
X163740000Y-115600000D02*
X159940000Y-119400000D01*
%TD*%
M02*
