999
FreeCAD v1.0 39319 (Git)
  0
SECTION
  2
HEADER
  9
$ACADVER
  1
AC1014
  9
$ACADMAINTVER
 70
     9
  9
$DWGCODEPAGE
  3
ANSI_1252
  9
$TEXTSTYLE
  7
STANDARD
  9
$DIMSTYLE
  2
STANDARD
  9
$DIMTXSTY
  7
STANDARD
  9
$CMLSTYLE
  2
STANDARD
  9
$LUNITS
 70
2
  9
$INSUNITS
 70
4
  9
$PEXTMAX
 10
50
 20
50
 30
50
  9
$PEXTMIN
 10
0
 20
0
 30
0
  9
$HANDSEED
  5
FFFF
  0
ENDSEC
  0
SECTION
  2
CLASSES
  0
CLASS
  1
ACDBDICTIONARYWDFLT
  2
AcDbDictionaryWithDefault
  3
ObjectDBX Classes
 90
        0
280
     0
281
     0
  0
CLASS
  1
XRECORD
  2
AcDbXrecord
  3
ObjectDBX Classes
 90
        0
280
     0
281
     0
  0
CLASS
  1
LWPOLYLINE
  2
AcDbPolyline
  3
ObjectDBX Classes
 90
        0
280
     0
281
     1
  0
ENDSEC
  0
SECTION
  2
TABLES
  0
TABLE
  2
VPORT
  5
20
330
0
100
AcDbSymbolTable
 70
     1
  0
VPORT
  5
21
330
20
100
AcDbSymbolTableRecord
100
AcDbViewportTableRecord
  2
*ACTIVE
 70
     0
  0
ENDTAB
  0
TABLE
  2
LTYPE
  5
22
330
0
100
AcDbSymbolTable
 70
     1
  0
LTYPE
  5
23
330
21
100
AcDbSymbolTableRecord
100
AcDbLinetypeTableRecord
  2
BYBLOCK
 70
     0
  3

 72
    65
 73
     0
 40
0.0
  0
LTYPE
  5
24
330
21
100
AcDbSymbolTableRecord
100
AcDbLinetypeTableRecord
  2
BYLAYER
 70
     0
  3

 72
    65
 73
     0
 40
0.0
  0
LTYPE
  5
25
330
21
100
AcDbSymbolTableRecord
100
AcDbLinetypeTableRecord
  2
CONTINUOUS
 70
     0
  3
Solid line
 72
    65
 73
     0
 40
0.0
  0
ENDTAB
  0
TABLE
  2
LAYER
  5
A56
330
0
100
AcDbSymbolTable
 70
9
  0
LAYER
  5
A57
330
A56
100
AcDbSymbolTableRecord
100
AcDbLayerTableRecord
  2
0
 70
   0
 62
   7
  6
CONTINUOUS
  0
LAYER
  5
A58
330
A56
100
AcDbSymbolTableRecord
100
AcDbLayerTableRecord
  2
none
 70
    0
 62
    7
  6
CONTINUOUS
  0
LAYER
  5
A59
330
A56
100
AcDbSymbolTableRecord
100
AcDbLayerTableRecord
  2
Sketch
 70
    0
 62
    7
  6
CONTINUOUS
  0
LAYER
  5
A5A
330
A56
100
AcDbSymbolTableRecord
100
AcDbLayerTableRecord
  2
Sketch004
 70
    0
 62
    7
  6
CONTINUOUS
  0
LAYER
  5
A5B
330
A56
100
AcDbSymbolTableRecord
100
AcDbLayerTableRecord
  2
Sketch007
 70
    0
 62
    7
  6
CONTINUOUS
  0
LAYER
  5
A5C
330
A56
100
AcDbSymbolTableRecord
100
AcDbLayerTableRecord
  2
Sketch002
 70
    0
 62
    7
  6
CONTINUOUS
  0
LAYER
  5
A5D
330
A56
100
AcDbSymbolTableRecord
100
AcDbLayerTableRecord
  2
Sketch006
 70
    0
 62
    7
  6
CONTINUOUS
  0
LAYER
  5
A5E
330
A56
100
AcDbSymbolTableRecord
100
AcDbLayerTableRecord
  2
Sketch010
 70
    0
 62
    7
  6
CONTINUOUS
  0
LAYER
  5
A5F
330
A56
100
AcDbSymbolTableRecord
100
AcDbLayerTableRecord
  2
Sketch011
 70
    0
 62
    7
  6
CONTINUOUS
  0
ENDTAB
  0
TABLE
  2
STYLE
  5
70
330
0
100
AcDbSymbolTable
 70
     2
  0
STYLE
  5
71
330
70
100
AcDbSymbolTableRecord
100
AcDbTextStyleTableRecord
  2
STANDARD
 70
     0
 40
0.0
 41
1.0
 50
0.0
 71
     0
 42
2.5
  3
arial.ttf
  4

  0
STYLE
  5
72
330
70
100
AcDbSymbolTableRecord
100
AcDbTextStyleTableRecord
  2
ANNOTATIVE
 70
     0
 40
0.0
 41
1.0
 50
0.0
 71
     0
 42
2.5
  3
arial.ttf
  4

  0
ENDTAB
  0
TABLE
  2
VIEW
  5
73
330
0
100
AcDbSymbolTable
 70
     0
  0
ENDTAB
  0
TABLE
  2
UCS
  5
74
330
0
100
AcDbSymbolTable
 70
     0
  0
ENDTAB
  0
TABLE
  2
APPID
  5
75
330
0
100
AcDbSymbolTable
 70
     2
  0
APPID
  5
76
330
75
100
AcDbSymbolTableRecord
100
AcDbRegAppTableRecord
  2
ACAD
 70
     0
  0
APPID
  5
77
330
75
100
AcDbSymbolTableRecord
100
AcDbRegAppTableRecord
  2
ACADANNOTATIVE
 70
     0
  0
ENDTAB
  0
TABLE
  2
DIMSTYLE
  5
78
330
0
100
AcDbSymbolTable
 70
     2
  0
DIMSTYLE
105
79
330
78
100
AcDbSymbolTableRecord
100
AcDbDimStyleTableRecord
  2
STANDARD
 70
     0
  3

  4

  5

  6

  7

 40
0.0
 41
2.5
 42
0.625
 43
3.75
 44
1.25
 45
0.0
 46
0.0
 47
0.0
 48
0.0
140
2.5
141
2.5
142
0.0
143
0.03937007874016
144
1.0
145
0.0
146
1.0
147
0.625
 71
     0
 72
     0
 73
     0
 74
     0
 75
     0
 76
     0
 77
     1
 78
     8
170
     0
171
     3
172
     1
173
     0
174
     0
175
     0
176
     0
177
     0
178
     0
270
     2
271
     2
272
     2
273
     2
274
     3
340
71
275
     0
280
     0
281
     0
282
     0
283
     0
284
     8
285
     0
286
     0
287
     3
288
     0
  0
ENDTAB
  0
TABLE
  2
BLOCK_RECORD
  5
A01
330
0
100
AcDbSymbolTable
  70
5
  0
BLOCK_RECORD
  5
A02
330
A01
100
AcDbSymbolTableRecord
100
AcDbBlockTableRecord
  2
*MODEL_SPACE
  0
BLOCK_RECORD
  5
A03
330
A01
100
AcDbSymbolTableRecord
100
AcDbBlockTableRecord
  2
*PAPER_SPACE
  0
ENDTAB
  0
ENDSEC
  0
SECTION
  2
BLOCKS
  0
BLOCK
  5
A04
330
A02
100
AcDbEntity
  8
0
100
AcDbBlockBegin
  2
*MODEL_SPACE
 70
   0
 10
0
 20
0
 30
0
  3
*MODEL_SPACE
  1
 
  0
ENDBLK
  5
A05
330
A02
100
AcDbEntity
  8
0
100
AcDbBlockEnd
  0
BLOCK
  5
A06
330
A03
100
AcDbEntity
 67
1
  8
0
100
AcDbBlockBegin
  2
*PAPER_SPACE
 70
   0
 10
0
 20
0
 30
0
  3
*PAPER_SPACE
  1
 
  0
ENDBLK
  5
A07
330
A03
100
AcDbEntity
 67
    1
  8
0
100
AcDbBlockEnd
  0
ENDSEC
  0
SECTION
  2
ENTITIES
  0
LINE
  5
A08
330
A02
100
AcDbEntity
  8
Sketch
100
AcDbLine
 10
-180.000000000
 20
103.923048454
 30
0.000000000
 11
-149.625000000
 21
116.923048454
 31
0.000000000
  0
LINE
  5
A09
330
A02
100
AcDbEntity
  8
Sketch
100
AcDbLine
 10
-149.625000000
 20
116.923048454
 30
0.000000000
 11
-30.375000000
 21
116.923048454
 31
0.000000000
  0
LINE
  5
A0A
330
A02
100
AcDbEntity
  8
Sketch
100
AcDbLine
 10
-30.375000000
 20
116.923048454
 30
0.000000000
 11
0.000000000
 21
103.923048454
 31
0.000000000
  0
LINE
  5
A0B
330
A02
100
AcDbEntity
  8
Sketch
100
AcDbLine
 10
0.000000000
 20
103.923048454
 30
0.000000000
 11
66.100000000
 21
103.923048454
 31
0.000000000
  0
LINE
  5
A0C
330
A02
100
AcDbEntity
  8
Sketch
100
AcDbLine
 10
66.100000000
 20
103.923048454
 30
0.000000000
 11
66.100000000
 21
107.423048454
 31
0.000000000
  0
LINE
  5
A0D
330
A02
100
AcDbEntity
  8
Sketch
100
AcDbLine
 10
66.100000000
 20
107.423048454
 30
0.000000000
 11
64.100000000
 21
107.423048454
 31
0.000000000
  0
LINE
  5
A0E
330
A02
100
AcDbEntity
  8
Sketch
100
AcDbLine
 10
64.100000000
 20
107.423048454
 30
0.000000000
 11
68.718802154
 21
115.423048454
 31
0.000000000
  0
LINE
  5
A0F
330
A02
100
AcDbEntity
  8
Sketch
100
AcDbLine
 10
68.718802154
 20
115.423048454
 30
0.000000000
 11
111.281197846
 21
115.423048454
 31
0.000000000
  0
LINE
  5
A10
330
A02
100
AcDbEntity
  8
Sketch
100
AcDbLine
 10
111.281197846
 20
115.423048454
 30
0.000000000
 11
115.900000000
 21
107.423048454
 31
0.000000000
  0
LINE
  5
A11
330
A02
100
AcDbEntity
  8
Sketch
100
AcDbLine
 10
115.900000000
 20
107.423048454
 30
0.000000000
 11
113.900000000
 21
107.423048454
 31
0.000000000
  0
LINE
  5
A12
330
A02
100
AcDbEntity
  8
Sketch
100
AcDbLine
 10
113.900000000
 20
107.423048454
 30
0.000000000
 11
113.900000000
 21
103.923048454
 31
0.000000000
  0
LINE
  5
A13
330
A02
100
AcDbEntity
  8
Sketch
100
AcDbLine
 10
113.900000000
 20
103.923048454
 30
0.000000000
 11
180.000000000
 21
103.923048454
 31
0.000000000
  0
LINE
  5
A14
330
A02
100
AcDbEntity
  8
Sketch
100
AcDbLine
 10
180.000000000
 20
103.923048454
 30
0.000000000
 11
146.950000000
 21
46.678769264
 31
0.000000000
  0
LINE
  5
A15
330
A02
100
AcDbEntity
  8
Sketch
100
AcDbLine
 10
146.950000000
 20
46.678769264
 30
0.000000000
 11
149.981088913
 21
44.928769264
 31
0.000000000
  0
LINE
  5
A16
330
A02
100
AcDbEntity
  8
Sketch
100
AcDbLine
 10
149.981088913
 20
44.928769264
 30
0.000000000
 11
150.981088913
 21
46.660820072
 31
0.000000000
  0
LINE
  5
A17
330
A02
100
AcDbEntity
  8
Sketch
100
AcDbLine
 10
150.981088913
 20
46.660820072
 30
0.000000000
 11
155.599891067
 21
38.660820072
 31
0.000000000
  0
LINE
  5
A18
330
A02
100
AcDbEntity
  8
Sketch
100
AcDbLine
 10
155.599891067
 20
38.660820072
 30
0.000000000
 11
134.318693220
 21
1.800704156
 31
0.000000000
  0
LINE
  5
A19
330
A02
100
AcDbEntity
  8
Sketch
100
AcDbLine
 10
134.318693220
 20
1.800704156
 30
0.000000000
 11
125.081088913
 21
1.800704156
 31
0.000000000
  0
LINE
  5
A1A
330
A02
100
AcDbEntity
  8
Sketch
100
AcDbLine
 10
125.081088913
 20
1.800704156
 30
0.000000000
 11
126.081088913
 21
3.532754963
 31
0.000000000
  0
LINE
  5
A1B
330
A02
100
AcDbEntity
  8
Sketch
100
AcDbLine
 10
126.081088913
 20
3.532754963
 30
0.000000000
 11
123.050000000
 21
5.282754963
 31
0.000000000
  0
LINE
  5
A1C
330
A02
100
AcDbEntity
  8
Sketch
100
AcDbLine
 10
123.050000000
 20
5.282754963
 30
0.000000000
 11
90.000000000
 21
-51.961524227
 31
0.000000000
  0
LINE
  5
A1D
330
A02
100
AcDbEntity
  8
Sketch
100
AcDbLine
 10
86.070830249
 20
-84.767045867
 30
0.000000000
 11
90.000000000
 21
-51.961524227
 31
0.000000000
  0
LINE
  5
A1E
330
A02
100
AcDbEntity
  8
Sketch
100
AcDbLine
 10
26.445830249
 20
-188.040575268
 30
0.000000000
 11
86.070830249
 21
-84.767045867
 31
0.000000000
  0
LINE
  5
A1F
330
A02
100
AcDbEntity
  8
Sketch
100
AcDbLine
 10
0.000000000
 20
-207.846096908
 30
0.000000000
 11
26.445830249
 21
-188.040575268
 31
0.000000000
  0
LINE
  5
A20
330
A02
100
AcDbEntity
  8
Sketch
100
AcDbLine
 10
-26.445830249
 20
-188.040575268
 30
0.000000000
 11
0.000000000
 21
-207.846096908
 31
0.000000000
  0
LINE
  5
A21
330
A02
100
AcDbEntity
  8
Sketch
100
AcDbLine
 10
-86.070830249
 20
-84.767045867
 30
0.000000000
 11
-26.445830249
 21
-188.040575268
 31
0.000000000
  0
LINE
  5
A22
330
A02
100
AcDbEntity
  8
Sketch
100
AcDbLine
 10
-90.000000000
 20
-51.961524227
 30
0.000000000
 11
-86.070830249
 21
-84.767045867
 31
0.000000000
  0
LINE
  5
A23
330
A02
100
AcDbEntity
  8
Sketch
100
AcDbLine
 10
-122.417468245
 20
4.187177826
 30
0.000000000
 11
-90.000000000
 21
-51.961524227
 31
0.000000000
  0
LINE
  5
A24
330
A02
100
AcDbEntity
  8
Sketch
100
AcDbLine
 10
-125.448557159
 20
2.437177826
 30
0.000000000
 11
-122.417468245
 21
4.187177826
 31
0.000000000
  0
LINE
  5
A25
330
A02
100
AcDbEntity
  8
Sketch
100
AcDbLine
 10
-124.448557159
 20
0.705127019
 30
0.000000000
 11
-125.448557159
 21
2.437177826
 31
0.000000000
  0
LINE
  5
A26
330
A02
100
AcDbEntity
  8
Sketch
100
AcDbLine
 10
-133.108811196
 20
0.705127019
 30
0.000000000
 11
-124.448557159
 21
0.705127019
 31
0.000000000
  0
LINE
  5
A27
330
A02
100
AcDbEntity
  8
Sketch
100
AcDbLine
 10
-155.943747687
 20
40.256397208
 30
0.000000000
 11
-133.108811196
 21
0.705127019
 31
0.000000000
  0
LINE
  5
A28
330
A02
100
AcDbEntity
  8
Sketch
100
AcDbLine
 10
-151.613620668
 20
47.756397208
 30
0.000000000
 11
-155.943747687
 21
40.256397208
 31
0.000000000
  0
LINE
  5
A29
330
A02
100
AcDbEntity
  8
Sketch
100
AcDbLine
 10
-150.613620668
 20
46.024346401
 30
0.000000000
 11
-151.613620668
 21
47.756397208
 31
0.000000000
  0
LINE
  5
A2A
330
A02
100
AcDbEntity
  8
Sketch
100
AcDbLine
 10
-147.582531755
 20
47.774346401
 30
0.000000000
 11
-150.613620668
 21
46.024346401
 31
0.000000000
  0
LINE
  5
A2B
330
A02
100
AcDbEntity
  8
Sketch
100
AcDbLine
 10
-180.000000000
 20
103.923048454
 30
0.000000000
 11
-147.582531755
 21
47.774346401
 31
0.000000000
  0
LINE
  5
A2C
330
A02
100
AcDbEntity
  8
Sketch
100
AcDbLine
 10
-114.000000000
 20
109.923048454
 30
0.000000000
 11
-66.000000000
 21
109.923048454
 31
0.000000000
  0
LINE
  5
A2D
330
A02
100
AcDbEntity
  8
Sketch
100
AcDbLine
 10
-66.000000000
 20
109.923048454
 30
0.000000000
 11
-66.000000000
 21
103.923048454
 31
0.000000000
  0
LINE
  5
A2E
330
A02
100
AcDbEntity
  8
Sketch
100
AcDbLine
 10
-66.000000000
 20
103.923048454
 30
0.000000000
 11
-114.000000000
 21
103.923048454
 31
0.000000000
  0
LINE
  5
A2F
330
A02
100
AcDbEntity
  8
Sketch
100
AcDbLine
 10
-114.000000000
 20
103.923048454
 30
0.000000000
 11
-114.000000000
 21
109.923048454
 31
0.000000000
  0
LINE
  5
A30
330
A02
100
AcDbEntity
  8
Sketch
100
AcDbLine
 10
-56.999994312
 20
-109.119210729
 30
0.000000000
 11
-62.196150906
 21
-112.119203504
 31
0.000000000
  0
LINE
  5
A31
330
A02
100
AcDbEntity
  8
Sketch
100
AcDbLine
 10
-62.196150906
 20
-112.119203504
 30
0.000000000
 11
-38.196208704
 21
-153.688456255
 31
0.000000000
  0
LINE
  5
A32
330
A02
100
AcDbEntity
  8
Sketch
100
AcDbLine
 10
-32.999994312
 20
-150.688430110
 30
0.000000000
 11
-38.196208704
 21
-153.688456255
 31
0.000000000
  0
LINE
  5
A33
330
A02
100
AcDbEntity
  8
Sketch
100
AcDbLine
 10
-32.999994312
 20
-150.688430110
 30
0.000000000
 11
-56.999994312
 21
-109.119210729
 31
0.000000000
  0
LINE
  5
A34
330
A02
100
AcDbEntity
  8
Sketch
100
AcDbLine
 10
33.000000000
 20
-150.688420258
 30
0.000000000
 11
57.000000000
 21
-109.119200877
 31
0.000000000
  0
LINE
  5
A35
330
A02
100
AcDbEntity
  8
Sketch
100
AcDbLine
 10
57.000000000
 20
-109.119200877
 30
0.000000000
 11
62.196210221
 21
-112.119234247
 31
0.000000000
  0
LINE
  5
A36
330
A02
100
AcDbEntity
  8
Sketch
100
AcDbLine
 10
62.196210221
 20
-112.119234247
 30
0.000000000
 11
38.196210221
 21
-153.688453628
 31
0.000000000
  0
LINE
  5
A37
330
A02
100
AcDbEntity
  8
Sketch
100
AcDbLine
 10
38.196210221
 20
-153.688453628
 30
0.000000000
 11
33.000000000
 21
-150.688420258
 31
0.000000000
  0
CIRCLE
  5
A38
330
A02
100
AcDbEntity
  8
Sketch004
100
AcDbCircle
 10
-43.461484889
 20
-78.830548454
 30
0.000000000
 40
2.000000000
  0
CIRCLE
  5
A39
330
A02
100
AcDbEntity
  8
Sketch004
100
AcDbCircle
 10
43.461484889
 20
-78.830548454
 30
0.000000000
 40
2.000000000
  0
CIRCLE
  5
A3A
330
A02
100
AcDbEntity
  8
Sketch004
100
AcDbCircle
 10
-0.000000000
 20
-154.108048454
 30
0.000000000
 40
2.000000000
  0
ARC
  5
A3B
330
A02
100
AcDbEntity
  8
Sketch007
100
AcDbCircle
 10
-4.500000000
 20
-19.131397208
 30
0.000000000
 40
6.500000000
100
AcDbArc
 50
90.000000000
 51
-90.000000000
  0
LINE
  5
A3C
330
A02
100
AcDbEntity
  8
Sketch007
100
AcDbLine
 10
-4.500000000
 20
-25.631397208
 30
0.000000000
 11
4.500000000
 21
-25.631397208
 31
0.000000000
  0
ARC
  5
A3D
330
A02
100
AcDbEntity
  8
Sketch007
100
AcDbCircle
 10
4.500000000
 20
-19.131397208
 30
0.000000000
 40
6.500000000
100
AcDbArc
 50
-90.000000000
 51
90.000000000
  0
LINE
  5
A3E
330
A02
100
AcDbEntity
  8
Sketch007
100
AcDbLine
 10
-0.000000000
 20
-12.631397208
 30
0.000000000
 11
4.500000000
 21
-12.631397208
 31
0.000000000
  0
LINE
  5
A3F
330
A02
100
AcDbEntity
  8
Sketch007
100
AcDbLine
 10
-4.500000000
 20
-12.631397208
 30
0.000000000
 11
0.000000000
 21
-12.631397208
 31
0.000000000
  0
CIRCLE
  5
A40
330
A02
100
AcDbEntity
  8
Sketch007
100
AcDbCircle
 10
-42.086073912
 20
-12.631397208
 30
0.000000000
 40
4.000000000
  0
CIRCLE
  5
A41
330
A02
100
AcDbEntity
  8
Sketch002
100
AcDbCircle
 10
-34.641016151
 20
83.923048454
 30
0.000000000
 40
5.000000000
  0
CIRCLE
  5
A42
330
A02
100
AcDbEntity
  8
Sketch002
100
AcDbCircle
 10
-73.341016151
 20
83.923048454
 30
0.000000000
 40
5.000000000
  0
CIRCLE
  5
A43
330
A02
100
AcDbEntity
  8
Sketch002
100
AcDbCircle
 10
-53.991016151
 20
50.407865328
 30
0.000000000
 40
5.000000000
  0
CIRCLE
  5
A44
330
A02
100
AcDbEntity
  8
Sketch002
100
AcDbCircle
 10
-92.691016151
 20
50.407865328
 30
0.000000000
 40
4.000000000
  0
CIRCLE
  5
A45
330
A02
100
AcDbEntity
  8
Sketch002
100
AcDbCircle
 10
-112.041016151
 20
83.923048454
 30
0.000000000
 40
5.100000000
  0
CIRCLE
  5
A46
330
A02
100
AcDbEntity
  8
Sketch006
100
AcDbCircle
 10
109.885263290
 20
40.480762114
 30
0.000000000
 40
4.000000000
  0
CIRCLE
  5
A47
330
A02
100
AcDbEntity
  8
Sketch006
100
AcDbCircle
 10
34.641016151
 20
83.923048454
 30
0.000000000
 40
7.400000000
  0
CIRCLE
  5
A48
330
A02
100
AcDbEntity
  8
Sketch006
100
AcDbCircle
 10
54.641016151
 20
49.282032303
 30
0.000000000
 40
7.400000000
  0
CIRCLE
  5
A49
330
A02
100
AcDbEntity
  8
Sketch006
100
AcDbCircle
 10
74.641016151
 20
83.923048454
 30
0.000000000
 40
7.400000000
  0
CIRCLE
  5
A4A
330
A02
100
AcDbEntity
  8
Sketch010
100
AcDbCircle
 10
0.000000000
 20
-190.546096908
 30
0.000000000
 40
1.600000000
  0
CIRCLE
  5
A4B
330
A02
100
AcDbEntity
  8
Sketch010
100
AcDbCircle
 10
-165.017760515
 20
95.273048454
 30
0.000000000
 40
1.600000000
  0
CIRCLE
  5
A4C
330
A02
100
AcDbEntity
  8
Sketch010
100
AcDbCircle
 10
165.017760515
 20
95.273048454
 30
0.000000000
 40
1.600000000
  0
LINE
  5
A4D
330
A02
100
AcDbEntity
  8
Sketch011
100
AcDbLine
 10
-90.000000000
 20
-51.961524227
 30
0.000000000
 11
90.000000000
 21
-51.961524227
 31
0.000000000
  0
LINE
  5
A4E
330
A02
100
AcDbEntity
  8
Sketch011
100
AcDbLine
 10
0.000000000
 20
103.923048454
 30
0.000000000
 11
90.000000000
 21
-51.961524227
 31
0.000000000
  0
LINE
  5
A4F
330
A02
100
AcDbEntity
  8
Sketch011
100
AcDbLine
 10
90.000000000
 20
-51.961524227
 30
0.000000000
 11
0.000000000
 21
-207.846096908
 31
0.000000000
  0
LINE
  5
A50
330
A02
100
AcDbEntity
  8
Sketch011
100
AcDbLine
 10
0.000000000
 20
-207.846096908
 30
0.000000000
 11
-90.000000000
 21
-51.961524227
 31
0.000000000
  0
LINE
  5
A51
330
A02
100
AcDbEntity
  8
Sketch011
100
AcDbLine
 10
-90.000000000
 20
-51.961524227
 30
0.000000000
 11
0.000000000
 21
103.923048454
 31
0.000000000
  0
LINE
  5
A52
330
A02
100
AcDbEntity
  8
Sketch011
100
AcDbLine
 10
0.000000000
 20
103.923048454
 30
0.000000000
 11
-180.000000000
 21
103.923048454
 31
0.000000000
  0
LINE
  5
A53
330
A02
100
AcDbEntity
  8
Sketch011
100
AcDbLine
 10
-147.582531755
 20
47.774346401
 30
0.000000000
 11
-122.417468245
 21
4.187177826
 31
0.000000000
  0
LINE
  5
A54
330
A02
100
AcDbEntity
  8
Sketch011
100
AcDbLine
 10
66.100000000
 20
103.923048454
 30
0.000000000
 11
113.900000000
 21
103.923048454
 31
0.000000000
  0
LINE
  5
A55
330
A02
100
AcDbEntity
  8
Sketch011
100
AcDbLine
 10
146.950000000
 20
46.678769264
 30
0.000000000
 11
123.050000000
 21
5.282754963
 31
0.000000000
  0
ENDSEC
  0
SECTION
  2
OBJECTS
  0
DICTIONARY
  5
F000
330
0
100
AcDbDictionary
  3
ACAD_GROUP
350
F001
  0
DICTIONARY
  5
F001
330
F000
100
AcDbDictionary
  0
ENDSEC
  0
EOF